<svg xmlns="http://www.w3.org/2000/svg" width="485.057" height="485.057" viewBox="0 0 485.057 485.057">
  <path id="Path_18989" data-name="Path 18989" d="M386.228,47.277A235.413,235.413,0,0,0,359.747,30.32,240.616,240.616,0,0,0,242.5,0C108.832,0,0,108.789,0,242.553A241.731,241.731,0,0,0,72.25,415.041c1.162,1.118,2.235,2.187,3.347,3.309a242.166,242.166,0,0,0,341.63-7.778c1.895-1.9,3.737-3.887,5.491-5.88A242.2,242.2,0,0,0,386.228,47.277M30.9,242.553C30.9,125.844,125.838,30.9,242.5,30.9a210.621,210.621,0,0,1,94.941,22.5L156.158,240.949,306.883,355.375A490.218,490.218,0,0,0,83.62,382.2,210.8,210.8,0,0,1,30.9,242.553m211.6,211.6A210.76,210.76,0,0,1,108.443,406.2a458.769,458.769,0,0,1,255.284-9.14l18.22,4.616A210.92,210.92,0,0,1,242.5,454.154m155.482-68.266L202.419,237.257,364.557,69.724a211.267,211.267,0,0,1,33.429,316.164" fill="#1b395f" opacity="0.06"/>
</svg>
