<svg xmlns="http://www.w3.org/2000/svg" width="24.637" height="24.637" viewBox="0 0 24.637 24.637">
  <path id="noun-car-door-4646103" d="M93.866,0a.77.77,0,0,1,.77.77v23.1a.77.77,0,0,1-.77.77H74.6a.77.77,0,0,1-.719-.495l-3.426-8.945A6.933,6.933,0,0,1,70,12.716v-.4a4.488,4.488,0,0,1,1.314-3.173l7.116-7.116A6.929,6.929,0,0,1,83.329,0Zm-.77,1.54H83.329a5.389,5.389,0,0,0-3.811,1.578L72.4,10.231a2.947,2.947,0,0,0-.863,2.084v.4a5.389,5.389,0,0,0,.356,1.927l3.236,8.45H93.1Zm-2.31,12.318a.77.77,0,1,1,0,1.54h-3.08a.77.77,0,1,1,0-1.54Zm0-10.779a.77.77,0,0,1,.77.77v7.7a.77.77,0,0,1-.77.77H73.849A.77.77,0,0,1,73.31,11l7.853-7.7a.77.77,0,0,1,.539-.22Zm-.77,1.54h-8l-6.282,6.159H90.017Z" transform="translate(-69.999 0.003)" fill="#1b395f" fill-rule="evenodd"/>
</svg>
