<svg xmlns="http://www.w3.org/2000/svg" width="16.637" height="16.637" viewBox="0 0 16.637 16.637">
  <path id="Icon_material-my-location" data-name="Icon material-my-location" d="M9.818,6.794a3.025,3.025,0,1,0,3.025,3.025A3.024,3.024,0,0,0,9.818,6.794Zm6.761,2.269a6.8,6.8,0,0,0-6-6V1.5H9.062V3.058a6.8,6.8,0,0,0-6,6H1.5v1.512H3.058a6.8,6.8,0,0,0,6,6v1.558h1.512V16.579a6.8,6.8,0,0,0,6-6h1.558V9.062Zm-6.761,6.05a5.294,5.294,0,1,1,5.294-5.294A5.29,5.29,0,0,1,9.818,15.112Z" transform="translate(-1.5 -1.5)" fill="#fff"/>
</svg>
