<svg id="_5d0de79b5d5541561192347" data-name="5d0de79b5d5541561192347" xmlns="http://www.w3.org/2000/svg" xmlns:xlink="http://www.w3.org/1999/xlink" width="138.363" height="43.329" viewBox="0 0 138.363 43.329">
  <defs>
    <linearGradient id="linear-gradient" x1="0.5" y1="32.634" x2="0.5" y2="31.633" gradientUnits="objectBoundingBox">
      <stop offset="0" stop-color="#000643"/>
      <stop offset="0.214" stop-color="#000747"/>
      <stop offset="0.224" stop-color="#00084a"/>
      <stop offset="0.349" stop-color="#001066"/>
      <stop offset="0.473" stop-color="#00157b"/>
      <stop offset="0.596" stop-color="#001987"/>
      <stop offset="0.716" stop-color="#001a8b"/>
    </linearGradient>
  </defs>
  <g id="Group_2975" data-name="Group 2975">
    <g id="Group_2972" data-name="Group 2972" transform="translate(9.179)">
      <g id="Group_2966" data-name="Group 2966" transform="translate(47.941 0.123)">
        <path id="Path_246" data-name="Path 246" d="M198.931,144.6s-4.582,6.734-4.613,6.765v5.351h-3.536v-5.228c-.031-.061-4.982-6.888-4.982-6.888h4.059s3.321,4.305,3.413,4.367c.061-.062,3.26-4.367,3.26-4.367Z" transform="translate(-185.8 -144.6)" fill="#231f20"/>
      </g>
      <g id="Group_2967" data-name="Group 2967" transform="translate(76.601 0.185)">
        <path id="Path_247" data-name="Path 247" d="M279,144.8h3.536v9.84H290.5v2.214H279Z" transform="translate(-279 -144.8)" fill="#231f20"/>
      </g>
      <g id="Group_2968" data-name="Group 2968" transform="translate(90.992 0.123)">
        <path id="Path_248" data-name="Path 248" d="M325.8,144.6h11.593v2.214h-8.118v2.706h7.965V151.8h-7.965V154.5h8.272v2.214H325.8Z" transform="translate(-325.8 -144.6)" fill="#231f20"/>
      </g>
      <g id="Group_2969" data-name="Group 2969" transform="translate(16.667 0.185)">
        <path id="Path_249" data-name="Path 249" d="M84.1,144.8v11.993h3.536v-4.859h7.35v4.859h3.506V144.8H94.986v4.92h-7.35V144.8Z" transform="translate(-84.1 -144.8)" fill="#231f20"/>
      </g>
      <g id="Group_2970" data-name="Group 2970" transform="translate(34.011 0.092)">
        <path id="Path_250" data-name="Path 250" d="M140.5,144.531h8c4.059,0,5.32,1.753,5.32,3.413,0,1.507-1.476,2.891-3.813,3.229.984,1.138,4.52,5.412,4.52,5.412h-3.936s-3.629-5.289-4.459-6.55c3.567.307,4.151-.769,4.151-1.753,0-1.2-2.829-1.907-6-1.507v9.84h-3.721V144.5l-.061.031Z" transform="translate(-140.5 -144.5)" fill="#231f20"/>
      </g>
      <g id="Group_2971" data-name="Group 2971" transform="translate(105.538 0.092)">
        <path id="Path_251" data-name="Path 251" d="M373.1,144.531h8c4.059,0,5.32,1.753,5.32,3.413,0,1.568-1.476,2.952-3.813,3.229.984,1.138,4.52,5.412,4.52,5.412h-3.936s-3.629-5.289-4.459-6.611c3.567.308,4.151-.769,4.151-1.753,0-1.261-2.829-1.907-6-1.568v9.9h-3.721V144.5l-.061.031Z" transform="translate(-373.1 -144.5)" fill="#231f20"/>
      </g>
      <path id="Path_252" data-name="Path 252" d="M231.462,148.152c0,2.03,1.046,3.014,3.567,3.6.523.123,1.2.308,2.645.554,1.261.246,2.06.492,2.06,1.138,0,.369-.184,1.322-3.014,1.322a16.7,16.7,0,0,1-4.982-.83l-.338,2.337a27.4,27.4,0,0,0,5.5.646c3.413,0,6.642-.953,6.642-3.782,0-1.968-1.138-3.014-3.506-3.475-1.046-.246-2.153-.431-2.952-.615-1.138-.184-1.845-.431-1.845-1.138,0-.615.461-.953,2.706-.953a18.018,18.018,0,0,1,4.367.646l.277-2.153a30.133,30.133,0,0,0-5.689-.646c-2.183,0-5.443.492-5.443,3.352" transform="translate(-169.437 -144.615)" fill="#231f20"/>
      <path id="Path_253" data-name="Path 253" d="M29.9,150.381c0,4.09,3.967,6.058,8.426,6.058a26.248,26.248,0,0,0,5.135-.554l.338-2.337a33.1,33.1,0,0,1-4.828.492c-2.306,0-5.6-1.076-5.6-3.721s3.26-3.721,5.6-3.721a33.094,33.094,0,0,1,4.828.492l-.338-2.337a25.913,25.913,0,0,0-5.135-.554c-4.459.123-8.426,2.091-8.426,6.181" transform="translate(-29.9 -144.2)" fill="#231f20"/>
    </g>
    <g id="Group_2974" data-name="Group 2974" transform="translate(0 21.002)">
      <path id="Path_254" data-name="Path 254" d="M91.516,221.781c.554,0,2.737,0,4.305-.061-.031.061-.092.123-.123.185a20.7,20.7,0,0,1-2.03,2.4h-7.35s2.86.369,2.921.707c.4,0,2.429-.123,3.875-.185a7.271,7.271,0,0,1-.738.707c1.322-1.322-.584.646-.154.184a.815.815,0,0,1,.154-.184l-.185.184a22.245,22.245,0,0,1-8.7,4.674,15.283,15.283,0,0,1-3.444.83,8.49,8.49,0,0,0-1.138.246c.215,0,5.6.246,9.717-1.753a25.335,25.335,0,0,0,7.626-5.812,7.065,7.065,0,0,1,4.7-2.522c.984-.123,31.428-2.706,31.489-2.706a17.574,17.574,0,0,0,5.966-1.507,5.22,5.22,0,0,0,.431-.308,2.636,2.636,0,0,1-.338.646,22.251,22.251,0,0,1-6.765,6c-3.721,1.691-26.569,6.95-30.628,7.811l-2.276.492c-6.089,1.261-13.807,2.891-17.743,3.659a2.832,2.832,0,0,1-2.214-.246c-.338-.184-1.845-1.015-2.491-1.261a18.163,18.163,0,0,0-6.119-1.2,16.334,16.334,0,0,0-6.119,1.261c-.646.246-2.122,1.076-2.491,1.261a2.831,2.831,0,0,1-2.214.246c-3.936-.707-11.655-2.4-17.743-3.659l-2.245-.492c-4.059-.83-26.907-6.119-30.628-7.811a21.475,21.475,0,0,1-6.765-6,4.531,4.531,0,0,1-.338-.646c.123.061.246.185.431.308a17.574,17.574,0,0,0,5.966,1.507c.062,0,30.536,2.583,31.489,2.706a7.136,7.136,0,0,1,4.7,2.522,25,25,0,0,0,7.657,5.812c4.121,1.968,9.5,1.691,9.717,1.753a10.54,10.54,0,0,0-1.169-.246,21.564,21.564,0,0,1-3.444-.83,23.1,23.1,0,0,1-8.7-4.674l-.185-.185.185.185c.369.492-1.507-1.507-.185-.185-.185-.185-.431-.43-.738-.769,1.507.061,3.752.185,4.151.185.062-.431,2.921-.707,2.921-.707s-6.519-.061-7.134,0h-.461a20.7,20.7,0,0,1-2.03-2.4c-.031-.061-.092-.123-.123-.185,1.63.123,4.059.123,4.643.123.062-.431,3.229-.769,3.229-.769H44.1a6.636,6.636,0,0,0-4.367-1.445c-.677,0-28.014-1.076-31.766-1.2a19.749,19.749,0,0,1-5.843-1.384A2.61,2.61,0,0,0,1.6,216.8c0-.185.338-.307.984-.307l9.1-.185c13.93-.246,39.915-.707,41.114-.707h.277a6.5,6.5,0,0,1,4.028,1.076l.523.307a12.054,12.054,0,0,0,4.551,1.845c1.63.123,7.78.061,8.057.061.246,0,6.458,0,8.057-.061a12.575,12.575,0,0,0,4.551-1.845l.523-.307A6.5,6.5,0,0,1,87.4,215.6h.277c1.169,0,27.153.492,41.114.707l9.1.185c.646,0,1.015.123.984.307a3.741,3.741,0,0,0-.523.246,21.9,21.9,0,0,1-5.843,1.384c-3.752.123-31.089,1.2-31.735,1.2a6.636,6.636,0,0,0-4.367,1.445H88.1s3.352.369,3.413.707" transform="translate(-1.123 -214.646)" fill="#fff"/>
      <path id="Path_255" data-name="Path 255" d="M88.395,223.851s3.2.369,3.229.769c.554,0,2.737,0,4.305-.061-.031.061-.092.123-.123.185a20.7,20.7,0,0,1-2.03,2.4h-7.35s2.86.369,2.921.707c.4,0,2.429-.123,3.875-.185a7.272,7.272,0,0,1-.738.707c1.322-1.322-.584.646-.154.185a.815.815,0,0,1,.154-.185l-.185.185a22.245,22.245,0,0,1-8.7,4.674,15.283,15.283,0,0,1-3.444.83,10.541,10.541,0,0,0-1.169.246c.215,0,5.6.246,9.717-1.753a25.334,25.334,0,0,0,7.626-5.812,7.065,7.065,0,0,1,4.7-2.522c.984-.123,31.428-2.706,31.489-2.706a17.574,17.574,0,0,0,5.966-1.507,5.217,5.217,0,0,0,.431-.308,2.637,2.637,0,0,1-.338.646,22.251,22.251,0,0,1-6.765,6c-3.721,1.691-26.569,6.95-30.628,7.811l-2.276.492c-6.089,1.261-13.807,2.891-17.743,3.659a2.832,2.832,0,0,1-2.214-.246c-.338-.185-1.845-1.015-2.491-1.261a18.163,18.163,0,0,0-6.119-1.2,16.335,16.335,0,0,0-6.119,1.261c-.646.246-2.122,1.076-2.491,1.261a2.831,2.831,0,0,1-2.214.246c-3.936-.707-11.655-2.4-17.743-3.659l-2.245-.492c-4.059-.83-26.907-6.119-30.628-7.811a21.475,21.475,0,0,1-6.765-6,4.531,4.531,0,0,1-.338-.646c.123.062.246.184.431.307A17.574,17.574,0,0,0,8.2,221.576c.062,0,30.536,2.583,31.489,2.706a7.135,7.135,0,0,1,4.7,2.522,25,25,0,0,0,7.657,5.812c4.121,1.968,9.5,1.753,9.717,1.753a10.541,10.541,0,0,0-1.169-.246,21.562,21.562,0,0,1-3.444-.83,23.094,23.094,0,0,1-8.7-4.674l-.185-.185.185.185c.369.492-1.507-1.507-.185-.185-.185-.184-.431-.43-.738-.769,1.507.061,3.752.184,4.151.184.062-.431,2.921-.707,2.921-.707s-6.519-.061-7.134,0H47a20.7,20.7,0,0,1-2.03-2.4c-.031-.061-.092-.123-.123-.185,1.63.123,4.059.123,4.643.123.061-.431,3.229-.769,3.229-.769" transform="translate(-1.262 -217.485)" fill="#bbbdbf"/>
      <g id="Group_2973" data-name="Group 2973">
        <path id="Path_256" data-name="Path 256" d="M136.907,213.329c-.953,0-48.587-.83-50.247-.83a6.958,6.958,0,0,0-4.459,1.138c-1.2.646-3.229,1.968-4.951,2.091-1.63.123-8.026.061-8.026.061s-6.427.061-8.026-.061c-1.722-.123-3.752-1.445-4.951-2.091a6.918,6.918,0,0,0-4.459-1.138c-1.63,0-49.294.83-50.247.83-1.415,0-2.03.953-.923,2.891A21.414,21.414,0,0,0,7.6,222.4c3.721,1.691,26.477,6.95,30.69,7.872,9.256,1.907,21.987,4.613,22.6,4.551,2.153-.246,4.121-1.814,8.3-1.814s6.119,1.507,8.3,1.814c.646.061,13.377-2.583,22.6-4.551,4.182-.892,26.969-6.119,30.69-7.872a21.414,21.414,0,0,0,6.98-6.181c1.2-1.907.615-2.891-.861-2.891m-46.465,6.3c.554,0,2.737,0,4.305-.062-.031.062-.092.123-.123.185a20.7,20.7,0,0,1-2.03,2.4h-7.35s2.86.369,2.921.707c.4,0,2.429-.123,3.875-.185a7.277,7.277,0,0,1-.738.707c1.322-1.322-.584.646-.154.184a.815.815,0,0,1,.154-.184l-.185.184a22.245,22.245,0,0,1-8.7,4.674,15.284,15.284,0,0,1-3.444.83,8.49,8.49,0,0,0-1.138.246c.215,0,5.6.246,9.717-1.753a25.335,25.335,0,0,0,7.626-5.812,7.065,7.065,0,0,1,4.7-2.522c.984-.123,31.428-2.706,31.489-2.706a17.574,17.574,0,0,0,5.966-1.507,5.213,5.213,0,0,0,.431-.307,2.636,2.636,0,0,1-.338.646,22.251,22.251,0,0,1-6.765,6c-3.721,1.691-26.569,6.95-30.628,7.811l-2.276.492c-6.089,1.261-13.807,2.891-17.743,3.659a2.832,2.832,0,0,1-2.214-.246c-.338-.185-1.845-1.015-2.491-1.261a18.163,18.163,0,0,0-6.119-1.2,16.335,16.335,0,0,0-6.119,1.261c-.646.246-2.122,1.076-2.491,1.261a2.831,2.831,0,0,1-2.214.246c-3.936-.707-11.655-2.4-17.743-3.659l-2.245-.492c-4.059-.83-26.907-6.119-30.628-7.811a21.474,21.474,0,0,1-6.765-6,4.53,4.53,0,0,1-.338-.646c.123.062.246.185.431.308a17.574,17.574,0,0,0,5.966,1.507c.062,0,30.536,2.583,31.489,2.706a7.135,7.135,0,0,1,4.7,2.522,25,25,0,0,0,7.657,5.812c4.121,1.968,9.5,1.691,9.717,1.753a10.541,10.541,0,0,0-1.169-.246A21.563,21.563,0,0,1,56,228.3a23.1,23.1,0,0,1-8.7-4.674l-.185-.185.185.185c.369.492-1.507-1.507-.185-.185-.185-.185-.431-.431-.738-.769,1.507.061,3.752.185,4.151.185.062-.431,2.921-.707,2.921-.707s-6.519-.062-7.134,0h-.461a20.7,20.7,0,0,1-2.03-2.4c-.031-.061-.092-.123-.123-.185,1.63.123,4.059.123,4.643.123.062-.431,3.229-.769,3.229-.769H43.024a6.636,6.636,0,0,0-4.367-1.445c-.677,0-28.014-1.076-31.766-1.2A19.749,19.749,0,0,1,1.049,214.9a2.609,2.609,0,0,0-.523-.246c0-.185.338-.308.984-.308l9.1-.184c13.93-.246,39.915-.707,41.114-.707H52a6.5,6.5,0,0,1,4.028,1.076l.523.308a12.054,12.054,0,0,0,4.551,1.845c1.63.123,7.78.062,8.057.062.246,0,6.458,0,8.057-.062a12.575,12.575,0,0,0,4.551-1.845l.523-.308a6.5,6.5,0,0,1,4.028-1.076H86.6c1.169,0,27.153.492,41.114.707l9.1.184c.646,0,1.015.123.984.308a3.738,3.738,0,0,0-.523.246,21.9,21.9,0,0,1-5.843,1.384c-3.752.123-31.089,1.2-31.735,1.2a6.636,6.636,0,0,0-4.367,1.445h-8.3s3.352.369,3.413.707" transform="translate(-0.049 -212.498)" fill="#231f20"/>
      </g>
      <path id="Path_257" data-name="Path 257" d="M204.278,232.8h-33.4c-.369,0-.4.062-.185.83a10.2,10.2,0,0,0,4.889,5.351c1.322.646,5.873.769,10.486.769h3.044c4.613,0,9.133-.123,10.486-.769a10.021,10.021,0,0,0,4.889-5.351c.215-.707.185-.83-.215-.83" transform="translate(-118.128 -226.557)" fill="url(#linear-gradient)"/>
      <path id="Path_258" data-name="Path 258" d="M219.629,238.9l-.984,1.353v1.107h-.769v-1.107L216.8,238.9h.861l.769.892.707-.892Z" transform="translate(-150.147 -230.781)" fill="#fff"/>
      <path id="Path_259" data-name="Path 259" d="M237,241.36h2.46v-.492h-1.753V238.9H237Z" transform="translate(-164.135 -230.781)" fill="#fff"/>
      <path id="Path_260" data-name="Path 260" d="M247,238.9h2.522v.461h-1.753v.554h1.722v.4h-1.722v.554h1.784v.492H247Z" transform="translate(-171.06 -230.781)" fill="#fff"/>
      <path id="Path_261" data-name="Path 261" d="M195.569,238.9v1.015h1.6V238.9h.769v2.46h-.769v-1.046h-1.6v1.046H194.8V238.9Z" transform="translate(-134.912 -230.781)" fill="#fff"/>
      <path id="Path_262" data-name="Path 262" d="M207,238.9h1.722c.892,0,1.138.369,1.138.646,0,.308-.308.615-.83.646.215.246.984,1.076.984,1.076h-.861s-.8-1.076-.953-1.322c.769.062.892-.184.892-.369,0-.246-.615-.369-1.292-.308v1.968H207Z" transform="translate(-143.36 -230.781)" fill="#fff"/>
      <path id="Path_263" data-name="Path 263" d="M257.2,238.9h1.722c.892,0,1.138.369,1.138.646,0,.308-.307.615-.83.646.215.246.984,1.076.984,1.076h-.861s-.8-1.076-.953-1.322c.769.062.892-.184.892-.369,0-.246-.615-.369-1.292-.308v1.968h-.8V238.9Z" transform="translate(-178.123 -230.781)" fill="#fff"/>
      <path id="Path_264" data-name="Path 264" d="M226.6,239.069c0,.431.215.646.769.769.092,0,.246.062.584.123.277.061.431.123.431.246,0,.062-.031.308-.646.308a4.621,4.621,0,0,1-1.076-.184l-.062.554a8.077,8.077,0,0,0,1.169.123c.738,0,1.415-.246,1.415-.83,0-.43-.246-.646-.769-.769a2.639,2.639,0,0,0-.646-.123c-.246-.062-.369-.123-.369-.246s.092-.246.584-.246a6.637,6.637,0,0,1,.953.123l.061-.492a12.065,12.065,0,0,0-1.23-.123c-.431.062-1.169.185-1.169.769" transform="translate(-156.933 -230.366)" fill="#fff"/>
      <path id="Path_265" data-name="Path 265" d="M183.1,240.05c0,.892.861,1.322,1.814,1.322a8.706,8.706,0,0,0,1.107-.123l.062-.492a7.993,7.993,0,0,1-1.046.123c-.523,0-1.2-.246-1.2-.769,0-.554.707-.769,1.2-.769a9.8,9.8,0,0,1,1.046.123l-.062-.492a9.539,9.539,0,0,0-1.107-.123c-.984-.123-1.814.277-1.814,1.2" transform="translate(-126.81 -230.732)" fill="#fff"/>
      <path id="Path_266" data-name="Path 266" d="M288.665,236.3h.154a3.117,3.117,0,0,0,.431-.615c.031-.061.092-.123.123-.184-1.63.062-3.813.123-4.305.062-.277.553-3.967.953-3.967.953s6.427-.092,7.565-.215" transform="translate(-194.674 -228.427)" fill="#fff"/>
      <path id="Path_267" data-name="Path 267" d="M279.035,246.53a10.3,10.3,0,0,0,1.753-.185,4.241,4.241,0,0,1,.646-.646c-.307,0-.677.061-1.015.061-1.23.062-2.552.123-2.86.123-.031.246-4.059.769-4.059.769s4.336-.061,5.535-.123" transform="translate(-189.411 -235.49)" fill="#fff"/>
      <path id="Path_268" data-name="Path 268" d="M150.61,236.476s-3.721-.431-3.967-.953c-.584,0-2.983,0-4.643-.123.031.061.092.123.123.184.123.185.277.369.4.554.154,0,.308.061.461.061,1.2.154,7.626.277,7.626.277" transform="translate(-98.349 -228.357)" fill="#fff"/>
      <path id="Path_269" data-name="Path 269" d="M159.111,246.653a39.166,39.166,0,0,1-4.059-.769c-.308,0-1.568-.062-2.8-.123-.461,0-.953-.061-1.353-.061a3.842,3.842,0,0,0,.615.615c.769.123,1.6.185,2.06.246,1.169.031,5.535.092,5.535.092" transform="translate(-104.512 -235.49)" fill="#fff"/>
    </g>
  </g>
</svg>
