<svg id="_5cf3d0f2c58bf1559482610" data-name="5cf3d0f2c58bf1559482610" xmlns="http://www.w3.org/2000/svg" xmlns:xlink="http://www.w3.org/1999/xlink" width="82.482" height="82.482" viewBox="0 0 82.482 82.482">
  <defs>
    <linearGradient id="linear-gradient" x1="-2.319" y1="4.255" x2="-2.299" y2="4.239" gradientUnits="objectBoundingBox">
      <stop offset="0" stop-color="#fff"/>
      <stop offset="0.1" stop-color="#e7e8e6"/>
      <stop offset="0.1" stop-color="#cdd0d0"/>
      <stop offset="0.2" stop-color="#b5bbbd"/>
      <stop offset="0.2" stop-color="#a5acaf"/>
      <stop offset="0.3" stop-color="#9ba3a7"/>
      <stop offset="0.3" stop-color="#98a0a4"/>
      <stop offset="0.4" stop-color="#828a8f"/>
      <stop offset="0.5" stop-color="#667075"/>
      <stop offset="0.6" stop-color="#535c63"/>
      <stop offset="0.7" stop-color="#475158"/>
      <stop offset="0.8" stop-color="#434d54"/>
      <stop offset="1" stop-color="#475157"/>
    </linearGradient>
    <linearGradient id="linear-gradient-2" x1="-2.5" y1="4.498" x2="-2.48" y2="4.482" gradientUnits="objectBoundingBox">
      <stop offset="0" stop-color="#0b1f2a"/>
      <stop offset="0.2" stop-color="#333f47"/>
      <stop offset="0.5" stop-color="#777f84"/>
      <stop offset="0.5" stop-color="#81898d"/>
      <stop offset="0.7" stop-color="#b3b8b8"/>
      <stop offset="0.8" stop-color="#d2d5d3"/>
      <stop offset="0.8" stop-color="#dee0dd"/>
      <stop offset="1" stop-color="#fbfbfb"/>
    </linearGradient>
    <linearGradient id="linear-gradient-3" x1="6.434" y1="2.925" x2="6.443" y2="2.901" gradientUnits="objectBoundingBox">
      <stop offset="0" stop-color="#e1e3e1"/>
      <stop offset="0.1" stop-color="#c1c5c4"/>
      <stop offset="0.3" stop-color="#9ba1a2"/>
      <stop offset="0.5" stop-color="#7d8487"/>
      <stop offset="0.7" stop-color="#687074" stop-opacity="0"/>
      <stop offset="0.8" stop-color="#5b6469" stop-opacity="0"/>
      <stop offset="1" stop-color="#576065" stop-opacity="0"/>
    </linearGradient>
    <linearGradient id="linear-gradient-4" x1="-2.688" y1="4.757" x2="-2.675" y2="4.735" xlink:href="#linear-gradient-3"/>
    <linearGradient id="linear-gradient-5" x1="-7.194" y1="16.598" x2="-7.196" y2="16.593" gradientUnits="objectBoundingBox">
      <stop offset="0" stop-color="#27343c"/>
      <stop offset="1" stop-color="#00111e" stop-opacity="0"/>
    </linearGradient>
    <linearGradient id="linear-gradient-6" x1="1.551" y1="0.531" x2="-0.504" y2="0.488" xlink:href="#linear-gradient-5"/>
    <linearGradient id="linear-gradient-7" x1="-6.137" y1="16.565" x2="-6.141" y2="16.563" gradientUnits="objectBoundingBox">
      <stop offset="0.2" stop-color="#02131f" stop-opacity="0.8"/>
      <stop offset="0.9" stop-color="#02131f" stop-opacity="0"/>
    </linearGradient>
    <linearGradient id="linear-gradient-8" x1="-6.422" y1="16.993" x2="-6.422" y2="16.996" gradientUnits="objectBoundingBox">
      <stop offset="0" stop-color="#02131f"/>
      <stop offset="0.1" stop-color="#02131f"/>
      <stop offset="1" stop-color="#02131f" stop-opacity="0"/>
    </linearGradient>
    <linearGradient id="linear-gradient-9" x1="-6.513" y1="6.11" x2="-6.481" y2="6.1" gradientUnits="objectBoundingBox">
      <stop offset="0" stop-color="#24303a" stop-opacity="0"/>
      <stop offset="0" stop-color="#25323b" stop-opacity="0"/>
      <stop offset="0.1" stop-color="#27343c"/>
    </linearGradient>
    <linearGradient id="linear-gradient-10" x1="-194.362" y1="49.216" x2="-194.362" y2="49.242" gradientUnits="objectBoundingBox">
      <stop offset="0.3" stop-color="#a5abaf"/>
      <stop offset="1" stop-color="#a5abaf" stop-opacity="0"/>
    </linearGradient>
    <linearGradient id="linear-gradient-11" x1="-5.605" y1="4.345" x2="-5.605" y2="4.32" gradientUnits="objectBoundingBox">
      <stop offset="0" stop-color="#dee0dd"/>
      <stop offset="0" stop-color="#c5c9c7"/>
      <stop offset="0" stop-color="#9ea4a5"/>
      <stop offset="0" stop-color="#82898c"/>
      <stop offset="0" stop-color="#71797d"/>
      <stop offset="0" stop-color="#6b7378"/>
      <stop offset="0.2" stop-color="#333f47"/>
      <stop offset="0.5" stop-color="#27343c"/>
      <stop offset="0.8" stop-color="#333f47"/>
      <stop offset="1" stop-color="#434d54"/>
    </linearGradient>
    <linearGradient id="linear-gradient-12" x1="-6.745" y1="6.459" x2="-6.758" y2="6.447" gradientUnits="objectBoundingBox">
      <stop offset="0.7" stop-color="#27343c"/>
      <stop offset="0.7" stop-color="#2b373f"/>
      <stop offset="0.7" stop-color="#36424a"/>
      <stop offset="0.7" stop-color="#49545b"/>
      <stop offset="0.8" stop-color="#646d73" stop-opacity="0"/>
      <stop offset="0.8" stop-color="#868d92" stop-opacity="0"/>
      <stop offset="0.8" stop-color="#b0b5b8" stop-opacity="0"/>
      <stop offset="0.8" stop-color="#e1e3e4" stop-opacity="0"/>
      <stop offset="0.8" stop-color="#fff" stop-opacity="0"/>
    </linearGradient>
  </defs>
  <path id="outer_24_" d="M-250.826,907.937a40.309,40.309,0,0,1-40.337,40.337A40.309,40.309,0,0,1-331.5,907.937,40.309,40.309,0,0,1-291.163,867.6,40.282,40.282,0,0,1-250.826,907.937Zm-40.38-37.926a37.774,37.774,0,0,0-37.883,37.883,37.856,37.856,0,0,0,37.883,37.883,37.856,37.856,0,0,0,37.883-37.883A37.72,37.72,0,0,0-291.206,870.011Z" transform="translate(332.447 -866.653)" fill="url(#linear-gradient)"/>
  <path id="Path_215" data-name="Path 215" d="M-288.017,873.2A37.774,37.774,0,0,0-325.9,911.083a37.856,37.856,0,0,0,37.883,37.883,37.856,37.856,0,0,0,37.883-37.883A37.72,37.72,0,0,0-288.017,873.2Zm0,73.356a35.45,35.45,0,0,1-35.473-35.473,35.422,35.422,0,0,1,35.473-35.473,35.422,35.422,0,0,1,35.473,35.473A35.422,35.422,0,0,1-288.017,946.556Z" transform="translate(329.258 -869.842)" fill="url(#linear-gradient-2)"/>
  <path id="Path_216" data-name="Path 216" d="M-292.459,947.021a40.309,40.309,0,0,0,40.337-40.337,40.309,40.309,0,0,0-40.337-40.337A40.309,40.309,0,0,0-332.8,906.684,40.309,40.309,0,0,0-292.459,947.021Zm0-81.621a41.357,41.357,0,0,1,41.241,41.241,41.357,41.357,0,0,1-41.241,41.241,41.32,41.32,0,0,1-41.241-41.2A41.394,41.394,0,0,1-292.459,865.4Z" transform="translate(333.7 -865.4)" opacity="0.4" fill="url(#linear-gradient-3)"/>
  <path id="Path_217" data-name="Path 217" d="M-327.1,910.629A38.518,38.518,0,0,1-288.7,872.1a38.435,38.435,0,0,1,38.4,38.529A38.3,38.3,0,0,1-288.7,948.9,38.3,38.3,0,0,1-327.1,910.629Zm11.968-26.561A37.562,37.562,0,0,0-326.2,910.629a37.39,37.39,0,0,0,10.978,26.432,37.929,37.929,0,0,0,26.561,10.978,36.858,36.858,0,0,0,26.432-10.978,36.858,36.858,0,0,0,10.978-26.432,37.928,37.928,0,0,0-10.978-26.561,36.969,36.969,0,0,0-26.432-11.107,37.069,37.069,0,0,0-26.475,11.107Z" transform="translate(329.941 -869.216)" fill="#fff"/>
  <path id="Path_218" data-name="Path 218" d="M-285,949.7a35.263,35.263,0,0,1-25.141-10.461A35.263,35.263,0,0,1-320.6,914.1a35.263,35.263,0,0,1,10.461-25.141A35.263,35.263,0,0,1-285,878.5a35.263,35.263,0,0,1,25.141,10.461A35.263,35.263,0,0,1-249.4,914.1a35.263,35.263,0,0,1-10.461,25.141A35.263,35.263,0,0,1-285,949.7Zm0-1.033A34.4,34.4,0,0,0-260.632,938.6a34.085,34.085,0,0,0,10.074-24.366,34.4,34.4,0,0,0-10.074-24.366A34.084,34.084,0,0,0-285,879.792a34.44,34.44,0,0,0-24.366,10.117,33.48,33.48,0,0,0-10.2,24.237,34.4,34.4,0,0,0,10.074,24.366A34.719,34.719,0,0,0-285,948.67Z" transform="translate(326.239 -872.861)" opacity="0.4" fill="url(#linear-gradient-4)"/>
  <path id="Path_219" data-name="Path 219" d="M-248.7,929.581c-.646-.517-25.528-20.233-25.528-20.233l-5.812-33.148a2.206,2.206,0,0,0-1.162,1.033l-4.133,32.244L-311,929.194s-.517.646-.775,1.033a2.517,2.517,0,0,0-.129,1.033l31.727-13,31.727,13a1.843,1.843,0,0,0-.258-1.679Z" transform="translate(321.285 -871.551)" fill="#fff"/>
  <path id="Path_220" data-name="Path 220" d="M-237.642,963.476l-.258,5.941,29.144,11.752a2.326,2.326,0,0,0,2.583-.258l-31.082-17.521A.222.222,0,0,0-237.642,963.476Z" transform="translate(279.141 -921.159)" fill="#565f64"/>
  <path id="Path_221" data-name="Path 221" d="M-237.3,963.476a30.849,30.849,0,0,0,3.616,5.037,29.827,29.827,0,0,0,6.328,5.037l18.942,7.62a2.325,2.325,0,0,0,2.583-.258l-31.082-17.521A.222.222,0,0,0-237.3,963.476Z" transform="translate(278.799 -921.159)" fill="url(#linear-gradient-5)"/>
  <path id="Path_222" data-name="Path 222" d="M-204.764,974.975c0-.129-.129-.258-.258-.517L-231.584,955l-3.616,2.325s.258.129.387,0a3.234,3.234,0,0,1,1.937,0c.646.258,28.111,17.779,28.111,17.65Z" transform="translate(277.604 -916.428)" fill="rgba(164,170,174,0.6)"/>
  <path id="Path_223" data-name="Path 223" d="M-200.884,972.787-225.638,953.2l-1.162.775,26.561,19.588a3.421,3.421,0,0,0-.646-.775Z" transform="translate(272.82 -915.403)" fill="#333e46"/>
  <path id="Path_224" data-name="Path 224" d="M-237.125,912.189c.129-.129,3.874-2.066,5.166-2.841l-4.52-30.952a2.32,2.32,0,0,0-1.421-2.2v35.989A1.48,1.48,0,0,0-237.125,912.189Z" transform="translate(279.141 -871.551)" fill="#565f64"/>
  <path id="Path_225" data-name="Path 225" d="M-281.422,879.421V881.1l-2.841,28.5a1.174,1.174,0,0,0,.517,1.033l1.679,1.292,1.162-31.469.129-2.454a2.1,2.1,0,0,0-.646,1.421Zm-1.55,33.019-1.55-1.291L-310.7,930.09s-.775.517-.9,1.033l.9-.517,27.465-17.263c.517-.258.646-.517.258-.9Z" transform="translate(321.114 -872.576)" fill="rgba(164,170,174,0.6)"/>
  <path id="Path_226" data-name="Path 226" d="M-280.431,963.458c0-.129-.129-.258-.258-.129l-31.211,17.65a2.6,2.6,0,0,0,2.583.258l29.144-11.752Z" transform="translate(321.285 -921.141)" fill="#565f64"/>
  <path id="Path_227" data-name="Path 227" d="M-236.7,913.427l.129-.129-.129.129a.126.126,0,0,0,.129.129h.129c.129-.129,3.874-2.066,5.166-2.841l-.517-3.745-4-27.207a1.579,1.579,0,0,0-.387-1.162s1.937,26.045,1.937,28.886a8.429,8.429,0,0,1-2.454,5.941Z" transform="translate(278.458 -872.917)" fill="url(#linear-gradient-6)"/>
  <path id="Path_228" data-name="Path 228" d="M-280.431,963.458c0-.129-.129-.258-.258-.129l-31.211,17.65a2.6,2.6,0,0,0,2.583.258l29.144-11.752Z" transform="translate(321.285 -921.141)" fill="url(#linear-gradient-7)"/>
  <path id="Path_229" data-name="Path 229" d="M-307.679,981.635l29.144-11.752-.258-5.682a7.4,7.4,0,0,1-3.874,4.52c-1.808,1.033-19.071,9.557-25.27,12.484a8.156,8.156,0,0,1-1.162.517,1.313,1.313,0,0,0,1.421-.086Z" transform="translate(319.69 -921.667)" opacity="0.8" fill="url(#linear-gradient-8)"/>
  <path id="Path_230" data-name="Path 230" d="M-325.917,956.769c-.9-2.066-6.07-12.14-.387-31.469h-2.2c-1.162,3.874-2.066,6.2-2.583,9.686,0,0-.258,1.292-.387,2.712a29.385,29.385,0,0,0-.129,3.1c0,7.749,1.937,12.269,1.937,12.269a37.326,37.326,0,0,0,10.59,16.617,37.112,37.112,0,0,0,16.23,7.62c-.9-.172-16.4-6.759-23.074-20.535Z" transform="translate(332.504 -899.513)" fill="url(#linear-gradient-9)"/>
  <path id="Path_231" data-name="Path 231" d="M-238.238,963.029H-239.4c.129,0,.258,0,.258.129l.258,5.941h.129l.258-5.941c0-.129.129-.258.258-.129Z" transform="translate(279.995 -920.97)" fill="url(#linear-gradient-10)"/>
  <path id="Path_232" data-name="Path 232" d="M-224.928,872.3c13.517,5.166,26.3,19.329,26.3,37.238a39.1,39.1,0,0,1-39.175,39.3v2.066a40.559,40.559,0,0,0,40.337-40.337A40.388,40.388,0,0,0-224.928,872.3Z" transform="translate(279.084 -869.33)" fill="url(#linear-gradient-11)"/>
  <path id="Path_233" data-name="Path 233" d="M-237.513,867.5h0Z" transform="translate(279.141 -866.596)" fill="#fff"/>
  <path id="Path_234" data-name="Path 234" d="M-198.206,896.741c-9.04-20.75-29.4-21.912-30.565-22.041h-.129c15.584,2.841,25.528,13,29.015,23.72v.129a40.5,40.5,0,0,1,2.454,13.259,34.976,34.976,0,0,1-2.841,14.163c-.129.646-.258,1.421-.387,1.421h2.066C-192.394,915.812-195.106,904.1-198.206,896.741Z" transform="translate(274.016 -870.696)" fill="url(#linear-gradient-12)"/>
  <path id="Path_235" data-name="Path 235" d="M-327.1,910.629A38.518,38.518,0,0,1-288.7,872.1a38.435,38.435,0,0,1,38.4,38.529A38.3,38.3,0,0,1-288.7,948.9,38.3,38.3,0,0,1-327.1,910.629Zm11.968-26.561A37.562,37.562,0,0,0-326.2,910.629a37.39,37.39,0,0,0,10.978,26.432,37.929,37.929,0,0,0,26.561,10.978,36.858,36.858,0,0,0,26.432-10.978,36.858,36.858,0,0,0,10.978-26.432,37.928,37.928,0,0,0-10.978-26.561,36.969,36.969,0,0,0-26.432-11.107,37.069,37.069,0,0,0-26.475,11.107Z" transform="translate(329.941 -869.216)" fill="#fbfbfb"/>
  <path id="Path_236" data-name="Path 236" d="M-310,930.69l26.3-18.942a26.714,26.714,0,0,0,4,1.808c.258.129.258-.129.258-.129l-3.229-2.712a1.174,1.174,0,0,1-.517-1.033l3.1-31.082c-.129.129-.129.388-.258.517a1.164,1.164,0,0,0-.129.646l-4.52,31.081L-309.742,930.3c-.129.129-.258.258-.258.388Z" transform="translate(320.203 -872.917)" fill="#333f47"/>
</svg>
