<svg id="g10" xmlns="http://www.w3.org/2000/svg" xmlns:xlink="http://www.w3.org/1999/xlink" width="139.963" height="27.743" viewBox="0 0 139.963 27.743">
  <defs>
    <linearGradient id="linear-gradient" x1="-1.577" y1="33.324" x2="-1.549" y2="33.324" gradientUnits="objectBoundingBox">
      <stop offset="0" stop-color="#bcbec0"/>
      <stop offset="0.698" stop-color="#939598"/>
      <stop offset="1" stop-color="#939598"/>
    </linearGradient>
    <linearGradient id="linear-gradient-2" x1="-1.656" y1="43.811" x2="-1.629" y2="43.811" gradientUnits="objectBoundingBox">
      <stop offset="0" stop-color="#fff"/>
      <stop offset="1" stop-color="#bcbec0"/>
    </linearGradient>
    <linearGradient id="linear-gradient-3" x1="-3.967" y1="33.337" x2="-3.94" y2="33.337" xlink:href="#linear-gradient"/>
    <linearGradient id="linear-gradient-4" x1="-4.05" y1="43.833" x2="-4.022" y2="43.833" xlink:href="#linear-gradient-2"/>
    <linearGradient id="linear-gradient-5" x1="-2.622" y1="41.321" x2="-2.596" y2="41.321" xlink:href="#linear-gradient-2"/>
    <linearGradient id="linear-gradient-6" x1="-2.619" y1="39.357" x2="-2.593" y2="39.357" gradientUnits="objectBoundingBox">
      <stop offset="0" stop-color="#bcbec0"/>
      <stop offset="0.896" stop-color="#939598"/>
      <stop offset="1" stop-color="#939598"/>
    </linearGradient>
    <linearGradient id="linear-gradient-7" x1="-4.992" y1="41.568" x2="-4.965" y2="41.568" xlink:href="#linear-gradient-2"/>
    <linearGradient id="linear-gradient-8" x1="-5.136" y1="43.648" x2="-5.109" y2="43.648" gradientUnits="objectBoundingBox">
      <stop offset="0" stop-color="#bcbec0"/>
      <stop offset="0.901" stop-color="#939598"/>
      <stop offset="1" stop-color="#939598"/>
    </linearGradient>
    <linearGradient id="linear-gradient-9" x1="-7.097" y1="40.036" x2="-7.067" y2="40.036" xlink:href="#linear-gradient-2"/>
    <linearGradient id="linear-gradient-10" x1="-7.056" y1="47.036" x2="-7.026" y2="47.036" xlink:href="#linear-gradient-8"/>
  </defs>
  <g id="g3627">
    <g id="g12" transform="translate(103.42)">
      <path id="path14" d="M-38.9,159.687h8.44l16.429-27.743h-8.44Z" transform="translate(38.899 -131.944)" fill="#cd3029"/>
    </g>
    <g id="g16" transform="translate(115.048)">
      <path id="path18" d="M-43.708,159.687h8.485l16.429-27.743h-8.44Z" transform="translate(43.708 -131.944)" fill="#cd3029"/>
    </g>
    <g id="g20" transform="translate(0 6.234)">
      <g id="Group_2944" data-name="Group 2944">
        <g id="Group_2943" data-name="Group 2943">
          <g id="Group_2942" data-name="Group 2942">
            <g id="g22">
              <g id="g28" transform="translate(0.009 0.053)">
                <path id="path30" d="M.864,188.282c-.406,0-.722-.463-.722-1.065v-9.356c0-.509.316-1.065.722-1.065l13.811.093c3.882,0,7.041,2.594,7.041,5.65,0,3.2-3.159,5.651-7.041,5.651Zm11.916-2.64a3.139,3.139,0,1,0,0-6.206H5.648c-.181,0-.316.278-.316.509v5c-.045.324.135.6.316.6h7.131Z" transform="translate(-0.141 -176.796)" fill="#262626"/>
              </g>
              <g id="g32" transform="translate(0 0.003)">
                <path id="path34" d="M.722,188.236c-.406,0-.722-.463-.722-1.065v-9.309c0-.509.316-1.065.722-1.065l13.766.093c3.882,0,7.041,2.594,7.041,5.651,0,3.1-3.159,5.651-7.041,5.651Zm11.916-2.547a3.139,3.139,0,1,0,0-6.206l-7.176-.093c-.181,0-.316.278-.316.509v5.141c0,.324.135.509.316.509Z" transform="translate(0 -176.796)" fill="#313131"/>
              </g>
              <g id="g36" transform="translate(0.081)">
                <path id="path38" d="M.864,188.288c-.406,0-.722-.463-.722-1.065v-9.217c0-.509.316-1.065.722-1.065l13.676.093c3.882,0,7,2.5,7,5.6s-3.159,5.6-7,5.6Zm11.825-2.455a3.23,3.23,0,1,0,0-6.392H5.422c-.181,0-.406.278-.406.6v5.234c0,.324.135.6.406.6Z" transform="translate(-0.141 -176.941)" fill="#3c3c3c"/>
              </g>
              <g id="g40" transform="translate(0.163 0.274)">
                <path id="path42" d="M.96,189.026c-.406,0-.677-.463-.677-.973V178.93c0-.509.316-.973.677-.973L14.591,178c3.836,0,7,2.5,7,5.6s-3.069,5.6-7,5.6Zm11.735-2.408a3.23,3.23,0,1,0,0-6.392l-7.222-.093c-.181,0-.406.278-.406.6v5.28c0,.324.135.6.406.6Z" transform="translate(-0.283 -177.957)" fill="#474747"/>
              </g>
              <g id="g44" transform="translate(0.154 0.179)">
                <path id="path46" d="M.818,188.881c-.406,0-.677-.463-.677-.973v-9.124c0-.509.316-.973.677-.973l13.54.093c3.836,0,6.906,2.5,6.906,5.465s-3.069,5.465-6.906,5.465H.818Zm11.735-2.316a3.481,3.481,0,0,0,3.746-3.288,3.573,3.573,0,0,0-3.746-3.288H5.2c-.181,0-.406.278-.406.6v5.419c0,.324.181.6.406.6C5.242,186.565,12.553,186.565,12.553,186.565Z" transform="translate(-0.141 -177.812)" fill="#515151"/>
              </g>
              <g id="g48" transform="translate(0.19 0.175)">
                <path id="path50" d="M.818,188.934c-.406,0-.677-.463-.677-.973V178.93c0-.509.316-.973.677-.973l13.5.093c3.836,0,6.906,2.5,6.906,5.465,0,3.01-3.069,5.465-6.906,5.465Zm11.78-2.223a3.357,3.357,0,1,0,0-6.669H5.151c-.181,0-.406.278-.406.6v5.465c0,.324.181.6.406.6Z" transform="translate(-0.141 -177.957)" fill="#5c5c5c"/>
              </g>
              <g id="g52" transform="translate(0.272 0.218)">
                <path id="path54" d="M.96,189.178c-.406,0-.677-.463-.677-.973V179.22c0-.509.316-.973.677-.973l13.4.093c3.746,0,6.86,2.362,6.86,5.419,0,3.011-3.069,5.419-6.86,5.419Zm11.69-2.131a3.668,3.668,0,0,0,3.836-3.381,3.61,3.61,0,0,0-3.836-3.381H5.112c-.181,0-.406.278-.406.6v5.6c0,.324.181.6.406.6Z" transform="translate(-0.283 -178.247)" fill="#676767"/>
              </g>
              <g id="g56" transform="translate(0.263 0.262)">
                <path id="path58" d="M.818,189.329c-.406,0-.677-.463-.677-.973V179.51c0-.509.316-.973.677-.973h13.4c3.746,0,6.86,2.362,6.86,5.419s-3.069,5.419-6.86,5.419H.818Zm11.69-2.038a3.616,3.616,0,0,0,3.836-3.427,3.7,3.7,0,0,0-3.836-3.427H4.971c-.181-.046-.406.232-.406.556v5.65c0,.324.181.6.406.6Z" transform="translate(-0.141 -178.538)" fill="#727272"/>
              </g>
              <g id="g60" transform="translate(0.299 0.351)">
                <path id="path62" d="M.818,189.672c-.406,0-.677-.463-.677-.973v-8.754c0-.509.316-.973.677-.973H14.133c3.746,0,6.77,2.362,6.77,5.326,0,2.918-3.024,5.326-6.77,5.326l-13.315.046Zm11.6-2.038a3.454,3.454,0,1,0,0-6.855l-7.583-.093c-.181,0-.406.278-.406.6v5.743c0,.324.181.6.406.6Z" transform="translate(-0.141 -178.973)" fill="#7c7c7c"/>
              </g>
              <g id="g64" transform="translate(0.381 0.301)">
                <path id="path66" d="M.96,189.626c-.406,0-.677-.463-.677-.973v-8.707c0-.509.316-.973.677-.973l13.224.093c3.746,0,6.77,2.362,6.77,5.326,0,2.918-3.024,5.326-6.77,5.326Zm11.6-1.853a3.579,3.579,0,1,0,0-7.133H4.841c-.181,0-.406.278-.406.6v5.882c0,.324.181.6.406.6H12.56Z" transform="translate(-0.283 -178.973)" fill="#878787"/>
              </g>
              <g id="g68" transform="translate(0.327 0.298)">
                <path id="path70" d="M.677,189.632c-.406,0-.677-.463-.677-.973v-8.568c0-.509.316-.973.677-.973l13.179.093c3.7,0,6.725,2.316,6.725,5.234s-3.024,5.234-6.725,5.234Zm11.645-1.714a3.587,3.587,0,1,0,0-7.133L4.6,180.739c-.181,0-.406.278-.406.6v5.882c0,.324.181.6.406.6Z" transform="translate(0 -179.118)" fill="#929292"/>
              </g>
              <g id="g72" transform="translate(0.408 0.295)">
                <path id="path74" d="M.818,189.777c-.406,0-.677-.463-.677-.973v-8.568c0-.509.271-.973.677-.973l13.089.093c3.7,0,6.725,2.316,6.725,5.234s-3.024,5.234-6.725,5.234Zm11.554-1.714a3.629,3.629,0,1,0,0-7.225l-7.808-.046c-.181,0-.406.278-.406.6v5.928c0,.324.181.6.406.6Z" transform="translate(-0.141 -179.263)" fill="#9d9d9d"/>
              </g>
              <g id="g76" transform="translate(0.444 0.292)">
                <path id="path78" d="M.818,189.876c-.406,0-.677-.463-.677-.973v-8.522c0-.509.271-.973.677-.973l13.044.093c3.7,0,6.635,2.316,6.635,5.141s-2.934,5.141-6.635,5.141ZM12.328,188.3a3.807,3.807,0,0,0,4.017-3.613,3.943,3.943,0,0,0-4.017-3.705l-7.853-.093c-.181,0-.406.278-.406.741v6.021c0,.324.181.741.406.741Z" transform="translate(-0.141 -179.408)" fill="#a8a8a8"/>
              </g>
              <g id="g80" transform="translate(0.436 0.288)">
                <path id="path82" d="M.677,189.928c-.316,0-.677-.463-.677-.973v-8.429c0-.509.271-.973.677-.973l12.954.093c3.611,0,6.635,2.316,6.635,5.141s-2.934,5.141-6.635,5.141ZM12.141,188.4a3.717,3.717,0,1,0,0-7.41l-7.9-.046c-.181,0-.406.278-.406.741V187.8c0,.324.181.741.406.741Z" transform="translate(0 -179.554)" fill="#b3b3b3"/>
              </g>
            </g>
          </g>
        </g>
      </g>
    </g>
    <g id="g84" transform="translate(0.546 10.415)">
      <g id="g86">
        <g id="g92">
          <g id="g94">
            <path id="path106" d="M189.822-373.32c-.045,1.112-.135,2.316-.135,3.381h0c0,1.112.181,1.389.722,1.389h10.11c2.663,0,4.965.093,6.725-.973h0A6.017,6.017,0,0,0,210-373.135h0c.045-.509.045-1.528-.135-1.528h0c-.181,0-3.2.741-3.475.787h0c-.135,0-.181.509-.181.509h0a4.127,4.127,0,0,1-3.024,3.705h-8.4a1.024,1.024,0,0,1-1.128-1.065h0c0-.787-.045-2.131-.045-2.779h0c0-.278-.045-.787-.045-1.575h0c-.045.741-.316,1.112-.587,1.112h-2.3c-.587,0-.587-.278-.677-1.251h0a7.113,7.113,0,0,0-.181,1.9" transform="translate(-189.686 375.219)" fill="url(#linear-gradient)"/>
          </g>
        </g>
      </g>
    </g>
    <g id="g108" transform="translate(0.501 6.753)">
      <g id="g110">
        <g id="g116">
          <g id="g118">
            <path id="path126" d="M190.267-386.693c-.316,0-.722-.093-.722.741h0c0,.741.135,3.613.181,4.354H193.2c.045-.324.135-2.362.135-2.64h0c0-.278-.045-1.343.858-1.343h6.86c1.128,0,4.965.463,4.965,4.029h3.836a3.68,3.68,0,0,0-.316-1.853h0c-.406-.741-1.625-2.594-5.371-3.1h0c-.812-.093-7.583-.185-11.464-.185h-2.437" transform="translate(-189.545 386.696)" fill="url(#linear-gradient-2)"/>
          </g>
        </g>
      </g>
    </g>
    <g id="g128" transform="translate(4.3 6.234)">
      <g id="Group_2947" data-name="Group 2947" transform="translate(0)">
        <g id="Group_2946" data-name="Group 2946">
          <g id="Group_2945" data-name="Group 2945">
            <g id="g130">
              <g id="g136" transform="translate(0 7.486)">
                <path id="path138" d="M.99,207.19c0,.324.045.6.451.6H8.979a4.132,4.132,0,0,0,4.107-1.992c.542-.741.135-.787-.316-.324-.406.463-1.128,1.528-3.746,1.528H1.983c-.271,0-.406-.278-.451-.324-.135-.093-.542-.278-.542.509" transform="translate(-0.99 -205.176)" fill="#fff"/>
              </g>
              <g id="g140" transform="translate(44.398 0.053)">
                <path id="path142" d="M-18.8,188.282c-.406,0-.722-.463-.722-1.065v-9.356c0-.509.316-1.065.722-1.065l13.811.093c3.882,0,7.041,2.594,7.041,5.65,0,3.2-3.159,5.651-7.041,5.651Zm11.87-2.64a3.363,3.363,0,0,0,3.611-3.1,3.391,3.391,0,0,0-3.611-3.1h-7.131c-.181,0-.316.278-.316.509v5c0,.278.135.509.316.509C-13.969,185.642-6.928,185.642-6.928,185.642Z" transform="translate(19.52 -176.796)" fill="#262626"/>
              </g>
              <g id="g144" transform="translate(44.434 0.003)">
                <path id="path146" d="M-18.8,188.236c-.406,0-.722-.463-.722-1.065v-9.309c0-.509.316-1.065.722-1.065l13.766.093c3.882,0,7.041,2.594,7.041,5.651,0,3.1-3.159,5.651-7.041,5.651Zm11.87-2.547a3.363,3.363,0,0,0,3.611-3.1,3.391,3.391,0,0,0-3.611-3.1H-14.1c-.181,0-.316.278-.316.509v5.141c0,.324.135.509.316.509h7.176S-6.928,185.688-6.928,185.688Z" transform="translate(19.52 -176.796)" fill="#313131"/>
              </g>
              <g id="g148" transform="translate(44.471)">
                <path id="path150" d="M-18.8,188.288c-.406,0-.722-.463-.722-1.065v-9.217c0-.509.316-1.065.722-1.065l13.676.093c3.882,0,7,2.5,7,5.6s-3.159,5.6-7,5.6Zm11.825-2.455a3.457,3.457,0,0,0,3.7-3.2,3.488,3.488,0,0,0-3.7-3.2h-7.222c-.181,0-.406.278-.406.6v5.234c0,.324.135.6.406.6Z" transform="translate(19.52 -176.941)" fill="#3c3c3c"/>
              </g>
              <g id="g152" transform="translate(44.507 0.274)">
                <path id="path154" d="M-18.843,189.026c-.406,0-.677-.463-.677-.973V178.93c0-.509.316-.973.677-.973L-5.213,178c3.836,0,7,2.5,7,5.6s-3.069,5.6-7,5.6Zm11.825-2.408a3.429,3.429,0,0,0,3.7-3.2,3.457,3.457,0,0,0-3.7-3.2H-14.33c-.181,0-.406.278-.406.6v5.326c0,.324.135.6.406.6Z" transform="translate(19.52 -177.957)" fill="#474747"/>
              </g>
              <g id="g156" transform="translate(44.588 0.179)">
                <path id="path158" d="M-18.7,188.881c-.406,0-.677-.463-.677-.973v-9.124c0-.509.316-.973.677-.973l13.54.093c3.836,0,6.906,2.5,6.906,5.465s-3.069,5.465-6.906,5.465H-18.7Zm11.735-2.316a3.481,3.481,0,0,0,3.746-3.288,3.573,3.573,0,0,0-3.746-3.288h-7.4c-.181,0-.406.278-.406.6v5.419c0,.324.181.6.406.6C-14.279,186.565-6.967,186.565-6.967,186.565Z" transform="translate(19.379 -177.812)" fill="#515151"/>
              </g>
              <g id="g160" transform="translate(44.625 0.175)">
                <path id="path162" d="M-18.7,188.934c-.406,0-.677-.463-.677-.973V178.93c0-.509.316-.973.677-.973l13.5.093c3.836,0,6.906,2.5,6.906,5.465,0,3.01-3.069,5.465-6.906,5.465Zm11.69-2.223a3.573,3.573,0,0,0,3.746-3.288,3.583,3.583,0,0,0-3.746-3.381h-7.447c-.181,0-.406.278-.406.6v5.465c0,.324.181.6.406.6Z" transform="translate(19.379 -177.957)" fill="#5c5c5c"/>
              </g>
              <g id="g164" transform="translate(44.616 0.218)">
                <path id="path166" d="M-18.843,189.178c-.406,0-.677-.463-.677-.973V179.22c0-.509.316-.973.677-.973l13.4.093c3.746,0,6.86,2.362,6.86,5.419,0,3.011-3.069,5.419-6.86,5.419Zm11.735-2.131a3.668,3.668,0,0,0,3.836-3.381,3.61,3.61,0,0,0-3.836-3.381H-14.6c-.181,0-.406.278-.406.6v5.6c0,.324.181.6.406.6Z" transform="translate(19.52 -178.247)" fill="#676767"/>
              </g>
              <g id="g168" transform="translate(44.652 0.262)">
                <path id="path170" d="M-18.843,189.329c-.406,0-.677-.463-.677-.973V179.51c0-.509.316-.973.677-.973l13.36.093c3.746,0,6.86,2.362,6.86,5.419,0,3.011-3.069,5.419-6.86,5.419Zm11.69-2.038a3.616,3.616,0,0,0,3.836-3.427,3.7,3.7,0,0,0-3.836-3.427l-7.537-.093c-.181,0-.406.278-.406.6v5.65c0,.324.181.6.406.6Z" transform="translate(19.52 -178.538)" fill="#727272"/>
              </g>
              <g id="g172" transform="translate(44.734 0.351)">
                <path id="path174" d="M-18.7,189.672c-.406,0-.677-.463-.677-.973v-8.754c0-.509.316-.973.677-.973h13.27c3.746,0,6.77,2.362,6.77,5.326,0,2.918-3.024,5.326-6.77,5.326l-13.27.046Zm11.6-2.038a3.657,3.657,0,0,0,3.882-3.427A3.625,3.625,0,0,0-7.1,180.779l-7.583-.093c-.181,0-.406.278-.406.6v5.743c0,.324.181.6.406.6Z" transform="translate(19.379 -178.973)" fill="#7c7c7c"/>
              </g>
              <g id="g176" transform="translate(44.725 0.301)">
                <path id="path178" d="M-18.843,189.626c-.406,0-.677-.463-.677-.973v-8.707c0-.509.316-.973.677-.973l13.224.093c3.746,0,6.77,2.362,6.77,5.326,0,2.918-3.024,5.326-6.77,5.326Zm11.6-1.853a3.706,3.706,0,0,0,3.882-3.566,3.734,3.734,0,0,0-3.882-3.566l-7.673-.093c-.181,0-.406.278-.406.6v5.882c0,.324.181.6.406.6C-14.871,187.773-7.244,187.773-7.244,187.773Z" transform="translate(19.52 -178.973)" fill="#878787"/>
              </g>
              <g id="g180" transform="translate(44.761 0.298)">
                <path id="path182" d="M-18.843,189.632c-.406,0-.677-.463-.677-.973v-8.568c0-.509.316-.973.677-.973l13.179.046c3.7,0,6.725,2.316,6.725,5.234s-3.024,5.234-6.725,5.234Zm11.6-1.714a3.76,3.76,0,0,0,3.972-3.566,3.76,3.76,0,0,0-3.972-3.566l-7.718-.093c-.181,0-.406.278-.406.6v5.882c0,.324.181.6.406.6Z" transform="translate(19.52 -179.118)" fill="#929292"/>
              </g>
              <g id="g184" transform="translate(44.843 0.295)">
                <path id="path186" d="M-18.7,189.777c-.406,0-.677-.463-.677-.973v-8.568c0-.509.271-.973.677-.973l13.089.093c3.7,0,6.725,2.316,6.725,5.234s-3.024,5.234-6.725,5.234Zm11.509-1.714a3.766,3.766,0,0,0,3.972-3.613,3.766,3.766,0,0,0-3.972-3.613L-15,180.7c-.181,0-.406.278-.406.6v5.928c0,.324.181.6.406.6Z" transform="translate(19.379 -179.263)" fill="#9d9d9d"/>
              </g>
              <g id="g188" transform="translate(44.879 0.292)">
                <path id="path190" d="M-18.7,189.876c-.406,0-.677-.463-.677-.973v-8.522c0-.509.271-.973.677-.973l13.044.093c3.7,0,6.635,2.316,6.635,5.141s-2.934,5.141-6.635,5.141ZM-7.238,188.3a3.807,3.807,0,0,0,4.017-3.613,3.943,3.943,0,0,0-4.017-3.705l-7.853-.093c-.181,0-.406.232-.406.695v6.021c0,.324.181.741.406.741h7.853Z" transform="translate(19.379 -179.408)" fill="#a8a8a8"/>
              </g>
              <g id="g192" transform="translate(44.87 0.288)">
                <path id="path194" d="M-18.843,189.928c-.316,0-.677-.463-.677-.973v-8.429c0-.509.271-.973.677-.973l12.954.093c3.611,0,6.635,2.316,6.635,5.141s-2.934,5.141-6.635,5.141ZM-7.379,188.4a3.912,3.912,0,0,0,4.017-3.705,3.912,3.912,0,0,0-4.017-3.705l-7.944-.093c-.181,0-.406.278-.406.741v6.114c0,.324.181.741.406.741h7.944Z" transform="translate(19.52 -179.554)" fill="#b3b3b3"/>
              </g>
            </g>
          </g>
        </g>
      </g>
    </g>
    <g id="g196" transform="translate(49.156 10.415)">
      <g id="g198">
        <g id="g204">
          <g id="g206">
            <path id="path218" d="M342.165-373.32c-.045,1.112-.135,2.316-.135,3.381h0c0,1.112.181,1.389.722,1.389h10.11c2.663,0,4.965.093,6.725-.973h0a6.017,6.017,0,0,0,2.753-3.613h0c.045-.509.045-1.528-.135-1.528h0c-.181,0-3.2.741-3.475.787h0c-.135,0-.181.509-.181.509h0a4.127,4.127,0,0,1-3.024,3.705h-8.4A1.024,1.024,0,0,1,346-370.727h0c0-.787-.045-2.131-.045-2.779h0c0-.278-.045-.787-.045-1.575h0c-.045.741-.316,1.112-.587,1.112h-2.3c-.587,0-.587-.278-.677-1.251h0a7.115,7.115,0,0,0-.181,1.9" transform="translate(-342.029 375.219)" fill="url(#linear-gradient-3)"/>
          </g>
        </g>
      </g>
    </g>
    <g id="g220" transform="translate(52.998 13.72)">
      <g id="Group_2950" data-name="Group 2950" transform="translate(0)">
        <g id="Group_2949" data-name="Group 2949">
          <g id="Group_2948" data-name="Group 2948">
            <g id="g222">
              <g id="g228">
                <path id="path230" d="M-18.672,207.19c0,.324.045.6.451.6h7.537A4.132,4.132,0,0,0-6.576,205.8c.542-.741.135-.787-.316-.324C-7.3,205.939-8.02,207-10.638,207h-7.041c-.271,0-.406-.278-.451-.324-.09-.093-.542-.278-.542.509" transform="translate(18.672 -205.176)" fill="#fff"/>
              </g>
            </g>
          </g>
        </g>
      </g>
    </g>
    <g id="g232" transform="translate(49.111 6.753)">
      <g id="g234">
        <g id="g240">
          <g id="g242">
            <path id="path250" d="M342.61-386.693c-.316,0-.722-.093-.722.741h0c0,.741.135,3.613.181,4.354h3.475c.045-.324.135-2.362.135-2.64h0c0-.278-.045-1.343.858-1.343h6.86c1.128,0,4.965.463,4.965,4.029H362.2a3.68,3.68,0,0,0-.316-1.853h0c-.406-.741-1.625-2.594-5.371-3.1h0c-.812-.093-7.583-.185-11.464-.185H342.61" transform="translate(-341.888 386.696)" fill="url(#linear-gradient-4)"/>
          </g>
        </g>
      </g>
    </g>
    <g id="g252" transform="translate(23.531 5.932)">
      <g id="Group_2953" data-name="Group 2953" transform="translate(0)">
        <g id="Group_2952" data-name="Group 2952">
          <g id="Group_2951" data-name="Group 2951">
            <g id="g254">
              <g id="g260" transform="translate(0 0.096)">
                <path id="path262" d="M-29.345,187.294c-4.92-.278-8.846-2.64-8.846-5.928s3.972-5.743,8.846-5.928c.858,0,1.9-.093,2.753-.093a26.466,26.466,0,0,1,2.753.093c4.92.185,8.846,2.64,8.846,5.928s-3.972,5.743-8.846,5.928c-.812,0-1.625.093-2.753.093-1.083,0-1.9-.093-2.753-.093m2.843-2.547h1.535c2.663-.093,4.829-1.528,4.829-3.381s-2.166-3.2-4.829-3.381h-3.069c-2.663.093-4.829,1.528-4.829,3.381s2.166,3.2,4.829,3.381H-26.5" transform="translate(38.192 -175.344)" fill="#262626"/>
              </g>
              <g id="g264" transform="translate(0.081 0.048)">
                <path id="path266" d="M-29.108,187.294c-4.829-.278-8.8-2.64-8.8-5.928s3.972-5.65,8.8-5.928c.858,0,1.9-.093,2.753-.093a26.466,26.466,0,0,1,2.753.093c4.829.185,8.8,2.64,8.8,5.928s-3.972,5.65-8.8,5.928c-.812,0-1.625.093-2.753.093-1.128-.046-1.941-.046-2.753-.093m2.753-2.5h1.535c2.663-.093,4.829-1.528,4.829-3.381s-2.166-3.288-4.829-3.381h-3.069c-2.663.093-4.829,1.528-4.829,3.381s2.166,3.288,4.829,3.381h1.535" transform="translate(37.909 -175.344)" fill="#313131"/>
              </g>
              <g id="g268" transform="translate(0.072 0.14)">
                <path id="path270" d="M-29.108,187.636c-4.829-.278-8.8-2.64-8.8-5.882,0-3.288,3.972-5.65,8.8-5.882.858,0,1.9-.093,2.753-.093a27.344,27.344,0,0,1,2.753.093c4.829.185,8.8,2.64,8.8,5.882,0,3.288-3.972,5.65-8.8,5.882-.812,0-1.625.093-2.753.093-1.128-.046-1.941-.093-2.753-.093m2.753-2.455a7.817,7.817,0,0,0,1.535-.093c2.663-.093,4.92-1.528,4.92-3.427,0-1.992-2.212-3.381-4.92-3.427-.451,0-.993-.093-1.535-.093a8.05,8.05,0,0,0-1.535.093c-2.663.093-4.92,1.528-4.92,3.427,0,1.992,2.212,3.381,4.92,3.427a7.588,7.588,0,0,0,1.535.093" transform="translate(37.909 -175.78)" fill="#3c3c3c"/>
              </g>
              <g id="g272" transform="translate(0.154)">
                <path id="path274" d="M-28.915,187.346c-4.829-.278-8.711-2.594-8.711-5.882,0-3.2,3.882-5.6,8.711-5.882.858,0,1.805-.093,2.753-.093a26.462,26.462,0,0,1,2.753.093c4.829.185,8.711,2.594,8.711,5.882,0,3.2-3.882,5.6-8.711,5.882-.812,0-1.625.093-2.753.093s-1.941-.093-2.753-.093m2.753-2.316a7.364,7.364,0,0,0,1.535-.093c2.753-.093,4.965-1.575,4.965-3.566s-2.212-3.381-4.965-3.566c-.451,0-1.083-.093-1.535-.093a8.05,8.05,0,0,0-1.535.093c-2.753.093-4.965,1.575-4.965,3.566s2.212,3.381,4.965,3.566a7.364,7.364,0,0,0,1.535.093" transform="translate(37.626 -175.489)" fill="#474747"/>
              </g>
              <g id="g276" transform="translate(0.19 0.184)">
                <path id="path278" d="M-28.819,187.794c-4.784-.185-8.666-2.594-8.666-5.743s3.882-5.6,8.666-5.743c.858,0,1.805-.093,2.753-.093.858,0,1.805,0,2.753.093,4.784.185,8.666,2.594,8.666,5.743s-3.882,5.6-8.666,5.743c-.812,0-1.625.093-2.753.093a24.356,24.356,0,0,1-2.753-.093m2.753-2.084a7.363,7.363,0,0,0,1.535-.093c2.753-.185,4.965-1.575,4.965-3.566s-2.212-3.427-4.965-3.566c-.542,0-1.083-.093-1.535-.093a8.051,8.051,0,0,0-1.535.093c-2.753.093-4.965,1.575-4.965,3.566s2.212,3.427,4.965,3.566c.451-.046.858.093,1.535.093" transform="translate(37.485 -176.215)" fill="#515151"/>
              </g>
              <g id="g280" transform="translate(0.181 0.183)">
                <path id="path282" d="M-28.819,187.939c-4.784-.185-8.666-2.594-8.666-5.743s3.882-5.465,8.666-5.743c.858,0,1.805-.093,2.663-.093a25.584,25.584,0,0,1,2.663.093c4.784.185,8.666,2.594,8.666,5.743s-3.882,5.465-8.666,5.743c-.812,0-1.625.093-2.663.093s-1.851-.093-2.663-.093m2.753-2.084a8.557,8.557,0,0,0,1.625-.093c2.753-.185,5.055-1.575,5.055-3.613,0-1.992-2.3-3.427-5.055-3.613-.542,0-1.083-.093-1.625-.093a9.562,9.562,0,0,0-1.625.093c-2.753.093-5.055,1.575-5.055,3.613,0,1.992,2.3,3.427,5.055,3.613a8.8,8.8,0,0,0,1.625.093" transform="translate(37.485 -176.36)" fill="#5c5c5c"/>
              </g>
              <g id="g284" transform="translate(0.262 0.321)">
                <path id="path286" d="M-28.626,188.335c-4.784-.185-8.576-2.594-8.576-5.651,0-3.1,3.836-5.465,8.576-5.65.858,0,1.805-.093,2.663-.093a25.58,25.58,0,0,1,2.663.093c4.784.185,8.576,2.594,8.576,5.65,0,3.1-3.836,5.465-8.576,5.651-.812,0-1.625.093-2.663.093s-1.851-.046-2.663-.093m2.753-2.038a8.555,8.555,0,0,0,1.625-.093c2.8-.185,5.1-1.575,5.1-3.613s-2.3-3.566-5.1-3.613c-.542,0-1.083-.093-1.625-.093a9.564,9.564,0,0,0-1.625.093c-2.8.046-5.1,1.575-5.1,3.613s2.3,3.566,5.1,3.613a8.555,8.555,0,0,0,1.625.093" transform="translate(37.202 -176.941)" fill="#676767"/>
              </g>
              <g id="g288" transform="translate(0.298 0.181)">
                <path id="path290" d="M-28.53,188.044c-4.694-.185-8.53-2.5-8.53-5.651,0-3.1,3.836-5.419,8.53-5.65.858,0,1.805-.093,2.663-.093a25.584,25.584,0,0,1,2.663.093c4.694.185,8.53,2.5,8.53,5.65,0,3.1-3.836,5.419-8.53,5.651-.812,0-1.535.093-2.663.093a15.7,15.7,0,0,1-2.663-.093m2.753-1.853a8.557,8.557,0,0,0,1.625-.093c2.8-.185,5.1-1.714,5.1-3.705,0-2.038-2.3-3.566-5.1-3.705-.542,0-1.083-.093-1.625-.093a9.565,9.565,0,0,0-1.625.093c-2.8.093-5.1,1.714-5.1,3.705,0,2.038,2.3,3.566,5.1,3.705a15.534,15.534,0,0,0,1.625.093" transform="translate(37.06 -176.651)" fill="#727272"/>
              </g>
              <g id="g292" transform="translate(0.334 0.272)">
                <path id="path294" d="M-28.433,188.387c-4.694-.185-8.485-2.5-8.485-5.6s3.836-5.419,8.44-5.6c.858,0,1.805-.093,2.663-.093a25.584,25.584,0,0,1,2.663.093c4.694.185,8.44,2.5,8.44,5.6s-3.836,5.419-8.44,5.6c-.812,0-1.535.093-2.663.093-1.083.046-1.805-.093-2.618-.093m2.753-1.853a8.555,8.555,0,0,0,1.625-.093c2.8-.185,5.19-1.714,5.19-3.705,0-2.038-2.3-3.613-5.19-3.705-.542,0-1.083-.093-1.625-.093a9.565,9.565,0,0,0-1.625.093c-2.8.093-5.19,1.714-5.19,3.705,0,2.038,2.3,3.613,5.19,3.705a8.555,8.555,0,0,0,1.625.093" transform="translate(36.919 -177.086)" fill="#7c7c7c"/>
              </g>
              <g id="g296" transform="translate(0.325 0.225)">
                <path id="path298" d="M-28.433,188.387c-4.649-.185-8.485-2.5-8.485-5.6s3.746-5.326,8.44-5.6c.858,0,1.76-.093,2.618-.093a24.3,24.3,0,0,1,2.618.093c4.649.185,8.44,2.5,8.44,5.6s-3.746,5.326-8.44,5.6c-.812,0-1.535.093-2.618.093-1.038-.046-1.76-.046-2.573-.093m2.753-1.806a8.557,8.557,0,0,0,1.625-.093c2.889-.185,5.236-1.714,5.236-3.8-.045-2.084-2.392-3.705-5.281-3.8-.542,0-1.083-.093-1.625-.093a9.562,9.562,0,0,0-1.625.093c-2.889.093-5.236,1.714-5.236,3.8,0,2.131,2.347,3.613,5.236,3.8a9.063,9.063,0,0,0,1.67.093" transform="translate(36.919 -177.086)" fill="#878787"/>
              </g>
              <g id="g300" transform="translate(0.407 0.502)">
                <path id="path302" d="M-28.241,189.125c-4.649-.185-8.4-2.5-8.4-5.465s3.746-5.326,8.4-5.465c.858,0,1.76-.093,2.618-.093a24.3,24.3,0,0,1,2.618.093c4.6.093,8.4,2.408,8.4,5.419s-3.746,5.326-8.4,5.465c-.812,0-1.535.093-2.618.093-1.083-.046-1.851-.046-2.618-.046m2.753-1.714a9.312,9.312,0,0,0,1.67-.093c2.889-.185,5.236-1.76,5.236-3.89s-2.347-3.705-5.236-3.891c-.542,0-1.083-.093-1.67-.093a10.1,10.1,0,0,0-1.67.093c-2.889.185-5.236,1.76-5.236,3.891s2.347,3.705,5.236,3.89c.5,0,.993.093,1.67.093" transform="translate(36.636 -178.102)" fill="#929292"/>
              </g>
              <g id="g304" transform="translate(0.488 0.362)">
                <path id="path306" d="M-28.048,188.835c-4.649-.185-8.3-2.5-8.3-5.465,0-3.011,3.746-5.234,8.3-5.465.858,0,1.76-.093,2.618-.093a24.723,24.723,0,0,1,2.618.093c4.649.185,8.3,2.5,8.3,5.465,0,3.01-3.7,5.326-8.3,5.465-.812,0-1.535.093-2.618.093s-1.851-.093-2.618-.093m2.753-1.575a9.312,9.312,0,0,0,1.67-.093c2.934-.185,5.326-1.76,5.326-3.89s-2.347-3.8-5.326-3.891c-.542,0-1.128-.093-1.67-.093a10.1,10.1,0,0,0-1.67.093c-2.934.185-5.326,1.76-5.326,3.891s2.347,3.8,5.326,3.89a9.061,9.061,0,0,0,1.67.093" transform="translate(36.353 -177.812)" fill="#9d9d9d"/>
              </g>
              <g id="g308" transform="translate(0.434 0.361)">
                <path id="path310" d="M-28.19,188.887c-4.559-.185-8.3-2.362-8.3-5.419s3.7-5.234,8.3-5.419c.858,0,1.76-.093,2.618-.093a24.731,24.731,0,0,1,2.618.093c4.559.185,8.3,2.362,8.3,5.419s-3.7,5.234-8.3,5.419c-.722,0-1.535.093-2.618.093a22.671,22.671,0,0,1-2.618-.093m2.753-1.389a8.813,8.813,0,0,0,1.67-.093c2.934-.185,5.326-1.76,5.326-4.029,0-2.223-2.437-3.8-5.326-4.029-.542,0-1.128-.093-1.67-.093a10.1,10.1,0,0,0-1.67.093c-2.934.185-5.326,1.76-5.326,4.029,0,2.223,2.437,3.8,5.326,4.029.542,0,1.038.093,1.67.093" transform="translate(36.494 -177.957)" fill="#a8a8a8"/>
              </g>
              <g id="g312" transform="translate(0.56 0.36)">
                <path id="path314" d="M-27.81,189.033c-4.559-.278-8.26-2.362-8.26-5.419,0-2.918,3.7-5.141,8.26-5.419.858,0,1.76-.093,2.618-.093a24.723,24.723,0,0,1,2.618.093c4.559.185,8.26,2.362,8.26,5.419,0,2.918-3.7,5.141-8.26,5.419-.722,0-1.535.093-2.618.093-1.128-.093-1.9-.093-2.618-.093m2.663-1.389a8.815,8.815,0,0,0,1.67-.093c2.934-.185,5.371-1.76,5.371-4.029s-2.437-3.891-5.371-4.029c-.542,0-1.128-.093-1.67-.093a10.1,10.1,0,0,0-1.67.093c-2.934.185-5.371,1.76-5.371,4.029s2.437,3.891,5.371,4.029a9.312,9.312,0,0,0,1.67.093" transform="translate(36.07 -178.102)" fill="#b3b3b3"/>
              </g>
            </g>
          </g>
        </g>
      </g>
    </g>
    <g id="g316" transform="translate(24.057 6.525)">
      <g id="g318">
        <g id="g324">
          <g id="g326">
            <path id="path334" d="M268.111-386.717a7.809,7.809,0,0,0-4.243,2.779h0a2.762,2.762,0,0,0-.451,1.992h3.611a4.147,4.147,0,0,1,1.941-3.288h0c1.354-.973,3.475-1.065,5.1-1.065h0a11.6,11.6,0,0,1,4.829.741h0a3.916,3.916,0,0,1,2.618,3.566h3.475a7.639,7.639,0,0,0-.045-1.343h0c-.271-.787-.722-1.992-3.159-3.01h0c-2.437-1.065-4.92-1.065-7.673-1.065h-.993a19.234,19.234,0,0,0-5.01.695" transform="translate(-263.367 387.412)" fill="url(#linear-gradient-5)"/>
          </g>
        </g>
      </g>
    </g>
    <g id="g336" transform="translate(24.107 11.851)">
      <g id="g338">
        <g id="g344">
          <g id="g346">
            <path id="path358" d="M263.524-370.719c0,4.817,7.537,5.6,9.93,5.6h0a28.76,28.76,0,0,0,6.635-.509h0c4.017-.973,4.92-3.613,5.055-4.956h-3.475a4.311,4.311,0,0,1-3.024,4.076h0c-2.212.787-8.53.278-9.749-.6h0a5.761,5.761,0,0,1-1.76-3.566h0l-3.611-.046Z" transform="translate(-263.524 370.719)" fill="url(#linear-gradient-6)"/>
          </g>
        </g>
      </g>
    </g>
    <g id="g360" transform="translate(28.146 6.202)">
      <g id="Group_2956" data-name="Group 2956" transform="translate(0)">
        <g id="Group_2955" data-name="Group 2955">
          <g id="Group_2954" data-name="Group 2954">
            <g id="g362">
              <g id="g368" transform="translate(0 6.587)">
                <path id="path370" d="M-26.29,203.522c5.19,0,6.635-2.038,7-3.613,0-.185-.045-.324-.181-.324s-.181.185-.181.324c-.135.278-.722,2.918-6.635,2.918s-6.454-2.594-6.59-2.918c-.045-.185-.045-.324-.181-.324s-.181.185-.181.324c.361,1.714,1.76,3.613,6.951,3.613" transform="translate(33.241 -199.585)" fill="#fff"/>
              </g>
              <g id="g372" transform="translate(44.501 0.088)">
                <path id="path374" d="M-83.515,204.832c0-.324-.181-.6-.406-.6h-13.9c-4.513.185-8.124,2.594-8.124,5.743s2.076,5.651,8.124,5.743h13.585c.406,0,.722-.463.722-1.065v-4.678c0-.509-.316-1.065-.722-1.065H-95.25c-.181,0-.406.278-.406.6v1.343c0,.324.181.6.406.6h6.183c.181,0,.406.278.406.6v.741c0,.324-.181.6-.406.6h-6.048a6.031,6.031,0,0,1-1.354-.093c-2.3-.093-4.152-1.389-4.152-3.381s1.9-2.918,4.152-3.011h12.638c.181,0,.406-.463.406-.741v-1.389l-.09.046Z" transform="translate(105.947 -204.23)" fill="#262626"/>
              </g>
              <g id="g376" transform="translate(44.587 0.013)">
                <path id="path378" d="M-26.593,196.717c0,3.1,2.031,5.6,8.034,5.65h13.5c.406,0,.722-.463.722-1.065v-4.632c0-.509-.316-1.065-.722-1.065H-15.9c-.181,0-.406.278-.406.6v1.343c0,.324.181.6.406.6h6.183c.181,0,.406.278.406.6v.787c0,.324-.181.6-.406.6h-7.4c-2.347-.093-4.243-1.528-4.243-3.427,0-1.992,1.9-2.918,4.243-3.01H-4.657c.181,0,.406-.324.406-.741v-1.343c0-.324-.181-.6-.406-.6H-18.469c-4.513.232-8.124,2.686-8.124,5.7" transform="translate(26.593 -191.021)" fill="#313131"/>
              </g>
              <g id="g380" transform="translate(44.672 0.053)">
                <path id="path382" d="M-26.451,196.816c0,3.1,2.031,5.465,7.989,5.6H-5.1c.406,0,.722-.463.722-.973v-4.539c0-.509-.316-.973-.722-.973H-15.935c-.181,0-.406.278-.406.6v1.112c0,.324.181.6.406.6h6.183c.181,0,.406.278.406.6v.926c0,.324-.181.6-.406.6h-6.183a5.609,5.609,0,0,1-1.264-.093c-2.437-.093-4.288-1.575-4.288-3.427,0-1.992,1.941-3.011,4.243-3.1H-4.832c.181,0,.406-.324.406-.741v-1.251c0-.324-.181-.6-.406-.6H-18.6c-4.333.324-7.853,2.686-7.853,5.65" transform="translate(26.451 -191.166)" fill="#3c3c3c"/>
              </g>
              <g id="g384" transform="translate(44.621)">
                <path id="path386" d="M-26.734,196.717c0,3.1,2.031,5.419,7.989,5.465h13.27c.406,0,.722-.463.722-.973v-4.4c0-.509-.316-.973-.722-.973H-16.128c-.181,0-.406.278-.406.509v1.112c0,.324.135.509.406.509h6.183c.181,0,.406.278.406.6v.973c0,.324-.135.6-.406.6h-7.4c-2.482-.093-4.288-1.714-4.288-3.566,0-1.992,1.941-3.011,4.243-3.1H-5.07c.181,0,.406-.324.406-.741v-1.112c0-.324-.135-.6-.406-.6H-18.745c-4.423.417-7.989,2.825-7.989,5.7" transform="translate(26.734 -191.021)" fill="#474747"/>
              </g>
              <g id="g388" transform="translate(44.706 0.179)">
                <path id="path390" d="M-26.593,197.252c0,3.011,2.031,5.419,7.944,5.419H-5.425c.406,0,.677-.463.677-.973v-4.354c0-.509-.316-.973-.677-.973H-16.076c-.181,0-.406.278-.406.509v1.065c0,.324.135.509.406.509h6.183c.181,0,.406.278.406.509v1.065c0,.324-.135.509-.406.509H-17.34c-2.573-.093-4.378-1.76-4.378-3.566,0-1.992,2.031-3.1,4.288-3.2H-5.064c.181,0,.406-.324.406-.6v-1.065c0-.324-.135-.509-.406-.509H-18.694c-4.423.232-7.9,2.686-7.9,5.65" transform="translate(26.593 -191.601)" fill="#515151"/>
              </g>
              <g id="g392" transform="translate(44.746 0.219)">
                <path id="path394" d="M-26.593,197.351c0,3.011,2.031,5.326,7.853,5.326H-5.605c.406,0,.677-.463.677-.973V197.49c0-.509-.316-.973-.677-.973H-16.031c-.181,0-.406.278-.406.509V198c0,.278.135.509.406.509h6.183c.181,0,.406.278.406.509v1.112c0,.324-.135.509-.406.509H-17.3c-2.573-.093-4.423-1.76-4.423-3.613,0-1.992,2.031-3.1,4.288-3.2H-5.154c.181,0,.406-.324.406-.6v-.973c0-.324-.135-.509-.406-.509H-18.739c-4.423.278-7.853,2.779-7.853,5.6" transform="translate(26.593 -191.746)" fill="#5c5c5c"/>
              </g>
              <g id="g396" transform="translate(44.74 0.305)">
                <path id="path398" d="M-26.734,197.548c0,2.918,2.031,5.234,7.853,5.326H-5.792c.406,0,.677-.463.677-.973v-4.168c0-.509-.316-.973-.677-.973H-16.128c-.181,0-.316.278-.316.509v.926c0,.278.135.509.316.509h6.183c.181,0,.316.278.316.509v1.251c0,.278-.135.509-.316.509h-7.492c-2.618-.093-4.513-1.853-4.513-3.613,0-1.992,2.076-3.2,4.288-3.288H-5.476c.181,0,.316-.324.316-.6v-.926c0-.278-.135-.509-.316-.509h-13.45c-4.378.232-7.808,2.733-7.808,5.512" transform="translate(26.734 -192.037)" fill="#676767"/>
              </g>
              <g id="g400" transform="translate(44.825 0.484)">
                <path id="path402" d="M-26.593,197.944c0,2.918,1.941,5.141,7.808,5.234h13c.406,0,.677-.463.677-.973v-4.076c0-.509-.316-.973-.677-.973H-16.122c-.181,0-.316.278-.316.509v.787c0,.278.135.509.316.509h6.183c.181,0,.316.278.316.509V201c0,.278-.135.509-.316.509h-7.492c-2.663-.093-4.513-1.992-4.513-3.705,0-1.992,2.076-3.2,4.288-3.288H-5.515c.181,0,.316-.278.316-.6v-.787c0-.278-.135-.509-.316-.509H-18.83c-4.333.046-7.763,2.64-7.763,5.326" transform="translate(26.593 -192.617)" fill="#727272"/>
              </g>
              <g id="g404" transform="translate(44.819 0.385)">
                <path id="path406" d="M-26.734,197.746c0,2.825,1.941,5,7.718,5.141H-6.108c.406,0,.677-.463.677-.973v-4.029c0-.509-.316-.973-.677-.973H-16.263c-.181,0-.316.278-.316.509v.741c0,.278.135.509.316.509h6.138c.181,0,.316.278.316.509v1.575c0,.278-.135.509-.316.509h-7.492c-2.753-.093-4.559-2.038-4.559-3.705,0-2.038,2.166-3.288,4.378-3.381H-5.747c.181,0,.316-.278.316-.6v-.741c0-.278-.135-.509-.316-.509H-19.061c-4.288.232-7.673,2.825-7.673,5.419" transform="translate(26.734 -192.327)" fill="#7c7c7c"/>
              </g>
              <g id="g408" transform="translate(44.859 0.472)">
                <path id="path410" d="M-26.734,197.851c0,2.825,1.941,4.956,7.718,5H-6.153c.406,0,.677-.463.677-.926v-3.8c0-.509-.316-.926-.677-.926h-10.11c-.181,0-.316.278-.316.509v.6c0,.278.135.509.316.509h6.183c.181,0,.316.278.316.509v1.575c0,.278-.135.509-.316.509h-7.492c-2.753-.093-4.649-2.131-4.649-3.8,0-2.038,2.166-3.288,4.378-3.381H-5.792c.181,0,.316-.278.316-.509v-.6c0-.278-.135-.509-.316-.509H-16.579a21.435,21.435,0,0,0-2.437.093c-4.378.139-7.718,2.686-7.718,5.141" transform="translate(26.734 -192.617)" fill="#878787"/>
              </g>
              <g id="g412" transform="translate(44.898 0.512)">
                <path id="path414" d="M-26.734,197.95c0,2.825,1.941,4.863,7.673,4.956.587,0,1.76.093,2.437.093H-6.2c.406,0,.677-.463.677-.926v-3.705c0-.509-.316-.926-.677-.926h-9.93c-.181,0-.316.278-.316.509v.324c0,.278.135.509.316.509h6.183c.181,0,.316.278.316.509v1.714c0,.278-.135.509-.316.509h-7.628c-2.8-.093-4.694-2.13-4.694-3.8,0-2.038,2.212-3.381,4.378-3.427H-5.927c.181,0,.316-.278.316-.509v-.509c0-.278-.135-.509-.316-.509H-16.714a22.243,22.243,0,0,0-2.437.093c-4.288.093-7.583,2.733-7.583,5.095" transform="translate(26.734 -192.763)" fill="#929292"/>
              </g>
              <g id="g416" transform="translate(44.893 0.459)">
                <path id="path418" d="M-26.876,197.851c0,2.779,1.941,4.817,7.583,4.863.587,0,1.76.093,2.437.093H-6.52c.406,0,.677-.463.677-.926v-3.613c0-.509-.271-.926-.677-.926h-9.794c-.181,0-.316.278-.316.509v.324c0,.278.135.509.316.509h6.183c.181,0,.316.278.316.509v1.76c0,.278-.135.509-.316.509h-7.537c-2.889-.046-4.694-2.131-4.694-3.8,0-2.038,2.212-3.381,4.423-3.566h11.87c.181,0,.316-.278.316-.509v-.463c0-.278-.135-.509-.316-.509H-16.72a22.243,22.243,0,0,0-2.437.093c-4.423.185-7.718,2.825-7.718,5.141" transform="translate(26.876 -192.617)" fill="#9d9d9d"/>
              </g>
              <g id="g420" transform="translate(44.977 0.453)">
                <path id="path422" d="M-26.734,197.851c0,2.779,1.9,4.678,7.537,4.817.677,0,1.67.093,2.347.093H-6.559c.406,0,.677-.324.677-.926v-3.566c0-.509-.271-.926-.677-.926h-9.794c-.181,0-.316.278-.316.509v.324c0,.278.135.509.316.509h6.183c.181,0,.316.278.316.509v1.853c0,.278-.135.509-.316.509h-7.583c-2.934-.093-4.784-2.316-4.784-4.029,0-2.038,2.3-3.427,4.423-3.566H-6.288c.181,0,.316-.278.316-.509v-.324c0-.278-.135-.509-.316-.509H-16.895a19.881,19.881,0,0,0-2.347.093c-4.2.324-7.492,2.964-7.492,5.141" transform="translate(26.734 -192.617)" fill="#a8a8a8"/>
              </g>
              <g id="g424" transform="translate(45.033 0.675)">
                <path id="path426" d="M-79.386,205.32c0-.278-.135-.509-.316-.509H-90.263a19.894,19.894,0,0,0-2.347.093c-4.288.185-7.537,2.825-7.537,4.956,0,2.64,1.9,4.632,7.537,4.817.677,0,1.67.093,2.347.093h10.2c.316,0,.677-.324.677-.926v-3.427c0-.463-.271-.926-.677-.926h-9.614c-.181,0-.316.278-.316.509v.278c0,.278.135.509.316.509h6.183c.181,0,.316.278.316.509v1.992c0,.278-.135.509-.316.509h-7.583c-3.024,0-4.829-2.362-4.829-4.029,0-2.038,2.3-3.427,4.423-3.613H-79.7c.181,0,.316-.278.316-.509v-.324Z" transform="translate(100.147 -204.81)" fill="#b3b3b3"/>
              </g>
              <g id="g428" transform="translate(45.033 0.675)">
                <path id="path430" d="M-79.386,205.32c0-.278-.135-.509-.316-.509H-90.263a19.894,19.894,0,0,0-2.347.093c-4.288.185-7.537,2.825-7.537,4.956,0,2.64,1.9,4.632,7.537,4.817.677,0,1.67.093,2.347.093h10.2c.316,0,.677-.324.677-.926v-3.427c0-.463-.271-.926-.677-.926h-9.614c-.181,0-.316.278-.316.509v.278c0,.278.135.509.316.509h6.183c.181,0,.316.278.316.509v1.992c0,.278-.135.509-.316.509h-7.583c-3.024,0-4.829-2.362-4.829-4.029,0-2.038,2.3-3.427,4.423-3.613H-79.7c.181,0,.316-.278.316-.509v-.324Z" transform="translate(100.147 -204.81)" fill="#b3b3b3"/>
              </g>
              <g id="g432" transform="translate(45.033 0.675)">
                <path id="path434" d="M-79.386,205.32c0-.278-.135-.509-.316-.509H-90.263a19.894,19.894,0,0,0-2.347.093c-4.288.185-7.537,2.825-7.537,4.956,0,2.64,1.9,4.632,7.537,4.817.677,0,1.67.093,2.347.093h10.2c.316,0,.677-.324.677-.926v-3.427c0-.463-.271-.926-.677-.926h-9.614c-.181,0-.316.278-.316.509v.278c0,.278.135.509.316.509h6.183c.181,0,.316.278.316.509v1.992c0,.278-.135.509-.316.509h-7.583c-3.024,0-4.829-2.362-4.829-4.029,0-2.038,2.3-3.427,4.423-3.613H-79.7c.181,0,.316-.278.316-.509v-.324Z" transform="translate(100.147 -204.81)" fill="#b3b3b3"/>
              </g>
              <g id="g436" transform="translate(45.033 0.675)">
                <path id="path438" d="M-79.386,205.32c0-.278-.135-.509-.316-.509H-90.263a19.894,19.894,0,0,0-2.347.093c-4.288.185-7.537,2.825-7.537,4.956,0,2.64,1.9,4.632,7.537,4.817.677,0,1.67.093,2.347.093h10.2c.316,0,.677-.324.677-.926v-3.427c0-.463-.271-.926-.677-.926h-9.614c-.181,0-.316.278-.316.509v.278c0,.278.135.509.316.509h6.183c.181,0,.316.278.316.509v1.992c0,.278-.135.509-.316.509h-7.583c-3.024,0-4.829-2.362-4.829-4.029,0-2.038,2.3-3.427,4.423-3.613H-79.7c.181,0,.316-.278.316-.509v-.324Z" transform="translate(100.147 -204.81)" fill="#b3b3b3"/>
              </g>
              <g id="g440" transform="translate(45.033 0.675)">
                <path id="path442" d="M-79.386,205.32c0-.278-.135-.509-.316-.509H-90.263a19.894,19.894,0,0,0-2.347.093c-4.288.185-7.537,2.825-7.537,4.956,0,2.64,1.9,4.632,7.537,4.817.677,0,1.67.093,2.347.093h10.2c.316,0,.677-.324.677-.926v-3.427c0-.463-.271-.926-.677-.926h-9.614c-.181,0-.316.278-.316.509v.278c0,.278.135.509.316.509h6.183c.181,0,.316.278.316.509v1.992c0,.278-.135.509-.316.509h-7.583c-3.024,0-4.829-2.362-4.829-4.029,0-2.038,2.3-3.427,4.423-3.613H-79.7c.181,0,.316-.278.316-.509v-.324Z" transform="translate(100.147 -204.81)" fill="#b3b3b3"/>
              </g>
              <g id="g444" transform="translate(45.033 0.675)">
                <path id="path446" d="M-79.386,205.32c0-.278-.135-.509-.316-.509H-90.263a19.894,19.894,0,0,0-2.347.093c-4.288.185-7.537,2.825-7.537,4.956,0,2.64,1.9,4.632,7.537,4.817.677,0,1.67.093,2.347.093h10.2c.316,0,.677-.324.677-.926v-3.427c0-.463-.271-.926-.677-.926h-9.614c-.181,0-.316.278-.316.509v.278c0,.278.135.509.316.509h6.183c.181,0,.316.278.316.509v1.992c0,.278-.135.509-.316.509h-7.583c-3.024,0-4.829-2.362-4.829-4.029,0-2.038,2.3-3.427,4.423-3.613H-79.7c.181,0,.316-.278.316-.509v-.324Z" transform="translate(100.147 -204.81)" fill="#b3b3b3"/>
              </g>
              <g id="g448" transform="translate(45.033 0.675)">
                <path id="path450" d="M-79.386,205.32c0-.278-.135-.509-.316-.509H-90.263a19.894,19.894,0,0,0-2.347.093c-4.288.185-7.537,2.825-7.537,4.956,0,2.64,1.9,4.632,7.537,4.817.677,0,1.67.093,2.347.093h10.2c.316,0,.677-.324.677-.926v-3.427c0-.463-.271-.926-.677-.926h-9.614c-.181,0-.316.278-.316.509v.278c0,.278.135.509.316.509h6.183c.181,0,.316.278.316.509v1.992c0,.278-.135.509-.316.509h-7.583c-3.024,0-4.829-2.362-4.829-4.029,0-2.038,2.3-3.427,4.423-3.613H-79.7c.181,0,.316-.278.316-.509v-.324Z" transform="translate(100.147 -204.81)" fill="#b3b3b3"/>
              </g>
              <g id="g452" transform="translate(45.033 0.675)">
                <path id="path454" d="M-79.386,205.32c0-.278-.135-.509-.316-.509H-90.263a19.894,19.894,0,0,0-2.347.093c-4.288.185-7.537,2.825-7.537,4.956,0,2.64,1.9,4.632,7.537,4.817.677,0,1.67.093,2.347.093h10.2c.316,0,.677-.324.677-.926v-3.427c0-.463-.271-.926-.677-.926h-9.614c-.181,0-.316.278-.316.509v.278c0,.278.135.509.316.509h6.183c.181,0,.316.278.316.509v1.992c0,.278-.135.509-.316.509h-7.583c-3.024,0-4.829-2.362-4.829-4.029,0-2.038,2.3-3.427,4.423-3.613H-79.7c.181,0,.316-.278.316-.509v-.324Z" transform="translate(100.147 -204.81)" fill="#b3b3b3"/>
              </g>
              <g id="g456" transform="translate(45.033 0.675)">
                <path id="path458" d="M-79.386,205.32c0-.278-.135-.509-.316-.509H-90.263a19.894,19.894,0,0,0-2.347.093c-4.288.185-7.537,2.825-7.537,4.956,0,2.64,1.9,4.632,7.537,4.817.677,0,1.67.093,2.347.093h10.2c.316,0,.677-.324.677-.926v-3.427c0-.463-.271-.926-.677-.926h-9.614c-.181,0-.316.278-.316.509v.278c0,.278.135.509.316.509h6.183c.181,0,.316.278.316.509v1.992c0,.278-.135.509-.316.509h-7.583c-3.024,0-4.829-2.362-4.829-4.029,0-2.038,2.3-3.427,4.423-3.613H-79.7c.181,0,.316-.278.316-.509v-.324Z" transform="translate(100.147 -204.81)" fill="#b3b3b3"/>
              </g>
              <g id="g460" transform="translate(45.033 0.675)">
                <path id="path462" d="M-79.386,205.32c0-.278-.135-.509-.316-.509H-90.263a19.894,19.894,0,0,0-2.347.093c-4.288.185-7.537,2.825-7.537,4.956,0,2.64,1.9,4.632,7.537,4.817.677,0,1.67.093,2.347.093h10.2c.316,0,.677-.324.677-.926v-3.427c0-.463-.271-.926-.677-.926h-9.614c-.181,0-.316.278-.316.509v.278c0,.278.135.509.316.509h6.183c.181,0,.316.278.316.509v1.992c0,.278-.135.509-.316.509h-7.583c-3.024,0-4.829-2.362-4.829-4.029,0-2.038,2.3-3.427,4.423-3.613H-79.7c.181,0,.316-.278.316-.509v-.324Z" transform="translate(100.147 -204.81)" fill="#b3b3b3"/>
              </g>
              <g id="g464" transform="translate(45.033 0.675)">
                <path id="path466" d="M-79.386,205.32c0-.278-.135-.509-.316-.509H-90.263a19.894,19.894,0,0,0-2.347.093c-4.288.185-7.537,2.825-7.537,4.956,0,2.64,1.9,4.632,7.537,4.817.677,0,1.67.093,2.347.093h10.2c.316,0,.677-.324.677-.926v-3.427c0-.463-.271-.926-.677-.926h-9.614c-.181,0-.316.278-.316.509v.278c0,.278.135.509.316.509h6.183c.181,0,.316.278.316.509v1.992c0,.278-.135.509-.316.509h-7.583c-3.024,0-4.829-2.362-4.829-4.029,0-2.038,2.3-3.427,4.423-3.613H-79.7c.181,0,.316-.278.316-.509v-.324Z" transform="translate(100.147 -204.81)" fill="#b3b3b3"/>
              </g>
              <g id="g468" transform="translate(45.033 0.675)">
                <path id="path470" d="M-79.386,205.32c0-.278-.135-.509-.316-.509H-90.263a19.894,19.894,0,0,0-2.347.093c-4.288.185-7.537,2.825-7.537,4.956,0,2.64,1.9,4.632,7.537,4.817.677,0,1.67.093,2.347.093h10.2c.316,0,.677-.324.677-.926v-3.427c0-.463-.271-.926-.677-.926h-9.614c-.181,0-.316.278-.316.509v.278c0,.278.135.509.316.509h6.183c.181,0,.316.278.316.509v1.992c0,.278-.135.509-.316.509h-7.583c-3.024,0-4.829-2.362-4.829-4.029,0-2.038,2.3-3.427,4.423-3.613H-79.7c.181,0,.316-.278.316-.509v-.324Z" transform="translate(100.147 -204.81)" fill="#b3b3b3"/>
              </g>
              <g id="g472" transform="translate(45.033 0.675)">
                <path id="path474" d="M-79.386,205.32c0-.278-.135-.509-.316-.509H-90.263a19.894,19.894,0,0,0-2.347.093c-4.288.185-7.537,2.825-7.537,4.956,0,2.64,1.9,4.632,7.537,4.817.677,0,1.67.093,2.347.093h10.2c.316,0,.677-.324.677-.926v-3.427c0-.463-.271-.926-.677-.926h-9.614c-.181,0-.316.278-.316.509v.278c0,.278.135.509.316.509h6.183c.181,0,.316.278.316.509v1.992c0,.278-.135.509-.316.509h-7.583c-3.024,0-4.829-2.362-4.829-4.029,0-2.038,2.3-3.427,4.423-3.613H-79.7c.181,0,.316-.278.316-.509v-.324Z" transform="translate(100.147 -204.81)" fill="#b3b3b3"/>
              </g>
              <g id="g476" transform="translate(45.033 0.675)">
                <path id="path478" d="M-79.386,205.32c0-.278-.135-.509-.316-.509H-90.263a19.894,19.894,0,0,0-2.347.093c-4.288.185-7.537,2.825-7.537,4.956,0,2.64,1.9,4.632,7.537,4.817.677,0,1.67.093,2.347.093h10.2c.316,0,.677-.324.677-.926v-3.427c0-.463-.271-.926-.677-.926h-9.614c-.181,0-.316.278-.316.509v.278c0,.278.135.509.316.509h6.183c.181,0,.316.278.316.509v1.992c0,.278-.135.509-.316.509h-7.583c-3.024,0-4.829-2.362-4.829-4.029,0-2.038,2.3-3.427,4.423-3.613H-79.7c.181,0,.316-.278.316-.509v-.324Z" transform="translate(100.147 -204.81)" fill="#b3b3b3"/>
              </g>
            </g>
          </g>
        </g>
      </g>
    </g>
    <g id="g480" transform="translate(73.168 6.793)">
      <g id="g482">
        <g id="g488">
          <g id="g490">
            <path id="path498" d="M424.819-386.469c-4.288.185-7.537,2.594-7.537,5.326h4.243v-.185h0c0-2.223,2.3-3.705,4.378-3.8h12.141c.181,0,.316-.324.406-.926h0l.045-.185c0-.278-.135-.324-.316-.324H426.94c-.767-.046-1.444.093-2.121.093" transform="translate(-417.281 386.571)" fill="url(#linear-gradient-7)"/>
          </g>
        </g>
      </g>
    </g>
    <g id="g500" transform="translate(73.123 11.897)">
      <g id="g502">
        <g id="g508">
          <g id="g510">
            <path id="path522" d="M427.34-370.158v.324h0c0,.185,0,.324.316.324h5.958c.181,0,.542.185.542.463h0v2.131h0c0,.324,0,.6-.587.6h0c-.587,0-9.253.926-10.607-1.065h0c-.587-.926-1.535-2.038-1.625-3.1h-4.2c0,4.817,5.777,4.863,6.906,4.863h0c1.128,0,12.5.093,12.954.093h0c.451,0,.858-.185.858-.973h0v-3.613h0c0-.185,0-.185-.135-.463h-9.749c-.045,0-.632.324-.632.417" transform="translate(-417.14 370.574)" fill="url(#linear-gradient-8)"/>
          </g>
        </g>
      </g>
    </g>
    <g id="g524" transform="translate(78.068 6.331)">
      <g id="Group_2959" data-name="Group 2959" transform="translate(0 0)">
        <g id="Group_2958" data-name="Group 2958">
          <g id="Group_2957" data-name="Group 2957">
            <g id="g526">
              <g id="g532" transform="translate(0 7.993)">
                <path id="path534" d="M-60.362,208.008c0,.324-.045.509-.451.509h-7.673c-1.219,0-3.159-.278-4.152-1.76-.406-.509,0-.6.451-.185a5.268,5.268,0,0,0,3.7,1.343h7.176a.532.532,0,0,0,.451-.324c.09-.185.5-.278.5.417" transform="translate(72.805 -206.31)" fill="#fff"/>
              </g>
              <g id="g536" transform="translate(5.164 5.181)">
                <path id="path538" d="M-57.856,207.583c0-.324-.181-.741-.451-.741h-9.884c-.181,0-.271.324-.271.741Z" transform="translate(68.462 -206.842)" fill="#fff"/>
              </g>
              <g id="g540" transform="translate(20.06)">
                <path id="path542" d="M-38.646,188.381c-.406,0-.677-.463-.677-.973v-9.495c0-.509.316-.973.677-.973h19c.135,0,.271.185.271.463v1.853c0,.278-.135.463-.271.463H-33.591c-.271,0-.542.324-.542.787v.463c0,.463.271.787.542.787h13.27c.135,0,.271.185.271.463V183.8c0,.185-.135.463-.271.463h-13.27c-.271,0-.542.324-.542.787v.463c0,.463.271.787.542.787h14.217c.135,0,.271.185.271.463v1.714c0,.278-.135.463-.271.463Z" transform="translate(39.323 -176.941)" fill="#262626"/>
              </g>
              <g id="g544" transform="translate(20.158 0.081)">
                <path id="path546" d="M-38.5,188.631c-.406,0-.677-.463-.677-.973v-9.309c0-.509.316-.973.677-.973h18.866c.135,0,.271.185.271.463v1.714c0,.185-.135.463-.271.463H-33.585c-.271,0-.542.324-.542.787v.509c0,.463.181.787.542.787h13.27c.135,0,.271.185.271.463v1.39c0,.185-.135.463-.271.463h-13.27c-.271,0-.542.324-.542.787v.51c0,.463.271.787.542.787h14.217c.135,0,.271.185.271.463v1.714c0,.185-.135.463-.271.463Z" transform="translate(39.182 -177.376)" fill="#313131"/>
              </g>
              <g id="g548" transform="translate(20.167 0.023)">
                <path id="path550" d="M-38.646,188.538c-.406,0-.677-.463-.677-.973v-9.217c0-.509.316-.973.677-.973H-19.87c.135,0,.271.185.271.324v1.575a.307.307,0,0,1-.271.324H-33.817c-.271,0-.542.324-.542.787v.6c0,.463.181.787.542.787H-20.5c.135,0,.271.185.271.324v1.343a.307.307,0,0,1-.271.324h-13.27c-.271,0-.542.324-.542.741v.741c0,.463.271.741.542.741h14.217c.135,0,.271.185.271.324v1.528a.307.307,0,0,1-.271.324Z" transform="translate(39.323 -177.376)" fill="#3c3c3c"/>
              </g>
              <g id="g552" transform="translate(20.266 0.104)">
                <path id="path554" d="M-38.5,188.881c-.406,0-.677-.463-.677-.973v-9.124c0-.509.316-.973.677-.973h18.641c.135,0,.271.185.271.324v1.528a.307.307,0,0,1-.271.324H-33.811c-.271,0-.542.324-.542.741v.741c0,.463.181.741.542.741h13.27c.135,0,.271.185.271.324v1.251a.307.307,0,0,1-.271.324H-33.9c-.271,0-.542.324-.542.741v.741c0,.463.271.741.542.741h14.217c.135,0,.271.185.271.324v1.389a.307.307,0,0,1-.271.324Z" transform="translate(39.182 -177.812)" fill="#474747"/>
              </g>
              <g id="g556" transform="translate(20.274 0.185)">
                <path id="path558" d="M-38.646,189.178c-.406,0-.677-.463-.677-.973V179.22c0-.509.316-.973.677-.973H-20.1c.135,0,.271.185.271.324v1.343a.307.307,0,0,1-.271.324H-34.043c-.271,0-.542.324-.542.741v.926c0,.463.181.741.542.741h13.27c.135,0,.271.185.271.324v1.112a.307.307,0,0,1-.271.324h-13.36c-.271,0-.542.324-.542.741v.926c0,.463.271.741.542.741h14.217c.135,0,.271.185.271.324v1.343a.307.307,0,0,1-.271.324Z" transform="translate(39.323 -178.247)" fill="#515151"/>
              </g>
              <g id="g560" transform="translate(20.327 0.266)">
                <path id="path562" d="M-38.646,189.474c-.406,0-.677-.463-.677-.973v-8.846c0-.509.316-.973.677-.973h18.415c.135,0,.271.185.271.324v1.25a.307.307,0,0,1-.271.324H-34.268c-.271,0-.542.324-.542.741v.973c0,.463.181.741.542.741h13.36c.135,0,.271.185.271.324v1.065a.307.307,0,0,1-.271.324h-13.36c-.271,0-.542.324-.542.741v1.065c0,.463.271.741.542.741h14.308c.135,0,.271.185.271.324v1.25a.307.307,0,0,1-.271.324Z" transform="translate(39.323 -178.683)" fill="#5c5c5c"/>
              </g>
              <g id="g564" transform="translate(20.336 0.255)">
                <path id="path566" d="M-38.788,189.527c-.406,0-.677-.463-.677-.973V179.8c0-.509.316-.973.677-.973h18.325c.135,0,.271.185.271.324v1.112a.307.307,0,0,1-.271.324H-34.5c-.271,0-.542.324-.542.741v1.065c0,.463.181.741.542.741h13.36c.135,0,.271.185.271.324v.973a.307.307,0,0,1-.271.324H-34.5c-.271,0-.542.324-.542.741v1.112c0,.463.271.741.542.741h14.308c.135,0,.271.185.271.324v1.065a.307.307,0,0,1-.271.324Z" transform="translate(39.465 -178.828)" fill="#676767"/>
              </g>
              <g id="g568" transform="translate(20.435 0.428)">
                <path id="path570" d="M-38.646,190.067c-.406,0-.677-.463-.677-.973v-8.568c0-.509.271-.973.677-.973h18.189c.135,0,.271.185.271.324v.973a.307.307,0,0,1-.271.324H-34.494c-.271,0-.542.324-.542.741v1.112c0,.463.181.741.542.741h13.36c.135,0,.271.185.271.324v.787a.307.307,0,0,1-.271.324h-13.36c-.271,0-.542.324-.542.741V187.2c0,.463.271.741.542.741h14.308c.135,0,.271.185.271.324v.973a.307.307,0,0,1-.271.324Z" transform="translate(39.323 -179.554)" fill="#727272"/>
              </g>
              <g id="g572" transform="translate(20.443 0.371)">
                <path id="path574" d="M-38.788,190.021c-.406,0-.677-.463-.677-.973v-8.522c0-.509.271-.973.677-.973h18.054c.135,0,.271.185.271.324v.926a.307.307,0,0,1-.271.324H-34.771c-.271,0-.451.324-.451.741v1.343c0,.463.181.741.451.741h13.36c.135,0,.271.185.271.324v.741a.307.307,0,0,1-.271.324h-13.36c-.271,0-.451.324-.451.741v1.389c0,.463.271.741.542.741h14.308c.135,0,.271.185.271.324v.926a.307.307,0,0,1-.271.324Z" transform="translate(39.465 -179.554)" fill="#7c7c7c"/>
              </g>
              <g id="g576" transform="translate(20.542 0.405)">
                <path id="path578" d="M-38.646,190.126c-.316,0-.677-.463-.677-.973v-8.337c0-.509.271-.973.677-.973h18.009c.135,0,.271.185.271.324v.787a.307.307,0,0,1-.271.324H-34.675c-.271,0-.451.324-.451.741v1.389c0,.463.181.741.451.741h13.36c.135,0,.271.185.271.324v.6a.307.307,0,0,1-.271.324h-13.4c-.271,0-.451.324-.451.741v1.528c0,.463.271.741.542.741h14.308c.135,0,.271.185.271.324v.787a.307.307,0,0,1-.271.324Z" transform="translate(39.323 -179.844)" fill="#878787"/>
              </g>
              <g id="g580" transform="translate(20.55 0.486)">
                <path id="path582" d="M-38.788,190.469c-.316,0-.677-.463-.677-.973v-8.244c0-.509.271-.973.677-.973h17.873c.135,0,.271.185.271.324v.741a.307.307,0,0,1-.271.324H-34.951c-.271,0-.451.324-.451.741v1.528c0,.463.181.741.451.741h13.36c.135,0,.271.185.271.324v.463a.307.307,0,0,1-.271.324h-13.45c-.271,0-.451.324-.451.741v1.575c0,.463.271.741.542.741h14.308c.135,0,.271.185.271.324v.926a.307.307,0,0,1-.271.324l-18.144.046Z" transform="translate(39.465 -180.279)" fill="#929292"/>
              </g>
              <g id="g584" transform="translate(20.604 0.475)">
                <path id="path586" d="M-38.788,190.521c-.316,0-.677-.463-.677-.973V181.4c0-.509.271-.973.677-.973H-21.05c.135,0,.271.185.271.324v.509a.307.307,0,0,1-.271.324H-35.087c-.271,0-.451.324-.451.741V183.9c0,.463.181.741.451.741h13.4c.135,0,.271.185.271.324v.741a.307.307,0,0,1-.271.324h-13.4c-.271,0-.451.324-.451.741v1.76c0,.463.271.741.542.741h14.308c.135,0,.271.185.271.324v.509a.307.307,0,0,1-.271.324l-18.1.093Z" transform="translate(39.465 -180.425)" fill="#9d9d9d"/>
              </g>
              <g id="g588" transform="translate(20.657 0.648)">
                <path id="path590" d="M-38.788,191.062c-.316,0-.677-.463-.677-.973v-7.966c0-.509.271-.973.677-.973h17.6c.135,0,.271.185.271.324v.463a.307.307,0,0,1-.271.324H-35.222c-.271,0-.451.324-.451.741v1.76c0,.463.181.741.451.741h13.4c.135,0,.271.185.271.324v.324a.307.307,0,0,1-.271.324h-13.4c-.271,0-.451.324-.451.741l-.045,1.853c0,.463.271.741.542.741h14.308c.135,0,.271.185.271.324v.417a.307.307,0,0,1-.271.324Z" transform="translate(39.465 -181.15)" fill="#a8a8a8"/>
              </g>
              <g id="g592" transform="translate(20.711 0.544)">
                <path id="path594" d="M-38.788,190.87c-.316,0-.677-.463-.677-.973v-7.92c0-.509.271-.973.677-.973h17.512c.135,0,.271.185.271.324v.324a.307.307,0,0,1-.271.324H-35.358c-.271,0-.451.324-.451.741v1.853c0,.463.181.741.451.741h13.4c.135,0,.271.185.271.324v.278a.307.307,0,0,1-.271.324h-13.4c-.271,0-.451.324-.451.741l-.045,1.992c0,.324.271.741.542.741H-21.05c.135,0,.271.185.271.324v.278a.307.307,0,0,1-.271.324Z" transform="translate(39.465 -181.005)" fill="#b3b3b3"/>
              </g>
            </g>
          </g>
        </g>
      </g>
    </g>
    <g id="g596" transform="translate(98.804 6.907)">
      <g id="g598">
        <g id="g604">
          <g id="g606">
            <path id="path614" d="M497.626-385.253l.181,4.215,3.836.463h13.4c.135,0,.181-.185.316-.324h0l.045-.185.045-.463c.045-.278-.135-.324-.271-.324H501.552c-.271,0-.451-.324-.451-.741h0v-1.575c0-.324.181-.741.451-.741h14.082c.135,0,.18-.185.271-.324h0l.181-.6c.045-.278-.135-.324-.271-.324H498.077c-.181-.185-.451.417-.451.926" transform="translate(-497.626 386.213)" fill="url(#linear-gradient-9)"/>
          </g>
        </g>
      </g>
    </g>
    <g id="g616" transform="translate(98.85 12.083)">
      <g id="g618">
        <g id="g624">
          <g id="g626">
            <path id="path638" d="M497.948-369.994s-.181,2.594-.181,3.613h0c0,1.065.271,1.065.948,1.065h17.2c.316,0,.316,0,.451-.324h0c.135-.278.271-.741.18-.787h0s-13.766.278-14.308.278h0c-.542,0-.993-.093-.993-.741h0v-1.992c0-.463.045-.6.587-.6h13.089c.406,0,.451,0,.587-.509H497.948Z" transform="translate(-497.767 369.994)" fill="url(#linear-gradient-10)"/>
          </g>
        </g>
      </g>
    </g>
    <g id="g640" transform="translate(102.288 15.093)">
      <g id="Group_2962" data-name="Group 2962" transform="translate(0 0)">
        <g id="Group_2961" data-name="Group 2961">
          <g id="Group_2960" data-name="Group 2960">
            <g id="g642">
              <g id="g648">
                <path id="path650" d="M-76.778,210.369H-90.95c-.271,0-.406-.278-.451-.324-.045-.093-.542-.185-.542.509,0,.324.045.741.451.741h14.127a1.034,1.034,0,0,0,.542-.093,4.438,4.438,0,0,1,.181-.463c.135-.232,0-.371-.135-.371" transform="translate(91.943 -209.982)" fill="#fff"/>
              </g>
            </g>
          </g>
        </g>
      </g>
    </g>
  </g>
</svg>
