<svg xmlns="http://www.w3.org/2000/svg" width="72" height="72" viewBox="0 0 72 72">
  <g id="Group_3579" data-name="Group 3579" transform="translate(-128 -935)">
    <circle id="Ellipse_27" data-name="Ellipse 27" cx="36" cy="36" r="36" transform="translate(128 935)" fill="#1b395f" opacity="0.22"/>
    <g id="noun-car-service-3944581" transform="translate(138 955)">
      <path id="Path_19154" data-name="Path 19154" d="M152.868,233.085a17.132,17.132,0,0,0-1.25-4.276c-.008-.016-.008-.024-.016-.04a8.289,8.289,0,0,0-3.464-3.782,6.466,6.466,0,0,0-3.225-.836h-6.474a23,23,0,0,0-16.8-6.554c-3.13-.342-7.342,1.131-11.395,2.675l-1.537.589c-.04.016-.088.032-.127.048a.84.84,0,0,0,.056-.286.8.8,0,0,0-.8-.8.757.757,0,0,1-.557-.231.782.782,0,0,1-.239-.565.8.8,0,1,0-1.592,0,.806.806,0,0,1-.231.565.788.788,0,0,1-.565.231.8.8,0,1,0,0,1.592.787.787,0,0,1,.772.677,39.93,39.93,0,0,1-3.878,1.226.793.793,0,0,0-.6.637,29.74,29.74,0,0,0-.589,5.853c0,.016-.008.024-.008.04a.182.182,0,0,0,.016.064c.088,2.309.741,4.348,2.548,5.606a.788.788,0,0,0,.454.143H107.1a4.775,4.775,0,0,0,9.476,0h17.734a4.775,4.775,0,0,0,9.476,0h7.007a2.109,2.109,0,0,0,1.608-.756,2.3,2.3,0,0,0,.469-1.824Zm-3.273-4.618a4.82,4.82,0,0,1-4.244-2.691,4.916,4.916,0,0,1,1.991.6,6.494,6.494,0,0,1,2.254,2.094Zm-24.8-4.316-2.015-4.961a20.76,20.76,0,0,1,13.234,4.961Zm-3.742-4.977,2.023,4.985H113.26l-1.585-2.724C114.972,220.2,118.508,219.046,121.048,219.174Zm-18.992,8.194h.828a.844.844,0,1,1,0,1.689h-.94C101.953,228.522,101.992,227.957,102.056,227.368Zm9.771,10.886a3.185,3.185,0,1,1,3.185-3.185A3.184,3.184,0,0,1,111.826,238.253Zm27.209,0a3.185,3.185,0,1,1,3.185-3.185A3.184,3.184,0,0,1,139.036,238.253Zm12.128-4.372a.5.5,0,0,1-.382.191H143.71a4.779,4.779,0,0,0-9.349,0H116.5a4.779,4.779,0,0,0-9.349,0h-3.527a4.8,4.8,0,0,1-1.617-3.424h.876a2.437,2.437,0,1,0,0-4.873h-.629c.048-.342.1-.685.167-1.035a70.8,70.8,0,0,0,6.848-2.389l.9-.342,1.943,3.345a.8.8,0,0,0,.685.4h30.785a6.509,6.509,0,0,0,6.2,4.332c.207,0,.422-.008.637-.024a17.647,17.647,0,0,1,.884,3.321.612.612,0,0,1-.135.5Z" transform="translate(-100.352 -208.393)" fill="#1b395f"/>
      <path id="Path_19155" data-name="Path 19155" d="M343.233,135.325a2.4,2.4,0,0,1,2.389,2.389.8.8,0,1,0,1.592,0,2.379,2.379,0,0,1,2.389-2.389.8.8,0,0,0,0-1.592,2.378,2.378,0,0,1-2.389-2.389.8.8,0,1,0-1.592,0,2.379,2.379,0,0,1-2.389,2.389.8.8,0,0,0,0,1.592Zm2.819-1.171a4.464,4.464,0,0,0,.366-.422,3.762,3.762,0,0,0,.374.43,4.454,4.454,0,0,0,.422.366,3.763,3.763,0,0,0-.43.374,4.45,4.45,0,0,0-.366.422,3.769,3.769,0,0,0-.8-.8A3.8,3.8,0,0,0,346.052,134.154Z" transform="translate(-316.964 -130.548)" fill="#1b395f"/>
      <path id="Path_19156" data-name="Path 19156" d="M485.65,195.859a.8.8,0,0,1,.8.8.8.8,0,1,0,1.592,0,.748.748,0,0,1,.239-.557.791.791,0,0,1,.557-.239.8.8,0,1,0,0-1.592.757.757,0,0,1-.557-.231.782.782,0,0,1-.239-.565.8.8,0,1,0-1.592,0,.807.807,0,0,1-.231.565.788.788,0,0,1-.565.231.8.8,0,1,0,0,1.592Z" transform="translate(-444.394 -186.137)" fill="#1b395f"/>
      <path id="Path_19157" data-name="Path 19157" d="M225.33,136.3a.8.8,0,0,1,.8.8.8.8,0,0,0,1.592,0,.748.748,0,0,1,.239-.557.791.791,0,0,1,.557-.239.8.8,0,0,0,0-1.592.757.757,0,0,1-.557-.231.782.782,0,0,1-.239-.565.8.8,0,0,0-1.592,0,.807.807,0,0,1-.231.565.821.821,0,0,1-.565.231.8.8,0,0,0,0,1.592Z" transform="translate(-211.467 -132.844)" fill="#1b395f"/>
    </g>
  </g>
</svg>
