<svg id="noun-car-seat-1694451" xmlns="http://www.w3.org/2000/svg" width="27.021" height="36.737" viewBox="0 0 27.021 36.737">
  <path id="Path_19158" data-name="Path 19158" d="M157.635,49.155a5.277,5.277,0,0,0,1.412,2.639,10.844,10.844,0,0,0,3.5,2.824.456.456,0,0,0,.276.061h16.665a.234.234,0,0,0,.153-.061,11.716,11.716,0,0,0,3.5-2.824,5.388,5.388,0,0,0,1.412-2.639c.246-1.627-.43-4.082-2.271-4.573-.184-1.719-.307-2.916-.338-3.591-.031-.368-.061-.767-.123-1.136s-.123-.767-.184-1.136q-.046-.276-.092-.46V38.2a27.227,27.227,0,0,1-.184-7.089,4.639,4.639,0,0,0-1.136-3.437,3.041,3.041,0,0,0-2.21-1.013h-3.284V25.4h.829a1.825,1.825,0,0,0,1.381-.614,1.292,1.292,0,0,0,.276-1.136l-1.074-4.512a1.643,1.643,0,0,0-1.657-1.2h-6.66a1.643,1.643,0,0,0-1.657,1.2l-.982,4.512a1.292,1.292,0,0,0,.276,1.136,1.726,1.726,0,0,0,1.381.614h.829v1.258h-3.038a3.1,3.1,0,0,0-2.056.982,4.494,4.494,0,0,0-1.136,3.376,18.605,18.605,0,0,1-.522,6.507l-.031.092c-.061.246-.153.522-.246.859-.276,1.043-.43,1.841-.46,1.995a15.907,15.907,0,0,0,0,4.021h-.092c-1.995.46-2.732,3.008-2.455,4.665Zm2.333,1.872A3.9,3.9,0,0,1,158.832,49c-.184-1.2.307-3.008,1.535-3.253a2.5,2.5,0,0,1,2.455,1.381v6.292a10.78,10.78,0,0,1-2.854-2.394Zm18.292,2.455h-14.21V47.467a.234.234,0,0,0,.061-.153h14.118v6.169Zm-12.43-16.911h10.619v9.545H165.829Zm17.494,12.4A4.4,4.4,0,0,1,182.188,51a9.782,9.782,0,0,1-2.7,2.3V47.283a2.641,2.641,0,0,1,2.056-1.565c.061,0,.092.031.153.031h.123c1.166.184,1.688,2.087,1.5,3.223Zm-5.371-21.054a1.724,1.724,0,0,1,1.289.614,3.332,3.332,0,0,1,.8,2.517,28.4,28.4,0,0,0,.215,7.458v.061a3.266,3.266,0,0,1,.092.43c.061.338.123.706.184,1.043a6,6,0,0,1,.092,1.043c.031.645.153,1.841.338,3.468a3.84,3.84,0,0,0-2.24,1.565h-1.074v-18.2Zm-11.54-3.867a.237.237,0,0,1-.031-.092l.982-4.512a.474.474,0,0,1,.46-.246h6.691c.276,0,.43.123.46.246l.982,4.512a.152.152,0,0,1-.031.092.512.512,0,0,1-.43.153h-8.685a.54.54,0,0,1-.4-.153Zm2.455,1.381h4.542V26.69h-4.542Zm7.611,2.486v7.428H165.83V27.918ZM161.41,40.685c.031-.153.153-.89.43-1.872.092-.338.184-.583.215-.767l.031-.092a20.439,20.439,0,0,0,.552-6.936,3.319,3.319,0,0,1,.829-2.486,2.025,2.025,0,0,1,1.166-.614V46.087h-.982a3.907,3.907,0,0,0-2.21-1.535,15.859,15.859,0,0,1-.031-3.867Z" transform="translate(-157.579 -17.943)" fill="#6f6f6e"/>
</svg>
