<svg id="noun-car-sensor-4333124" xmlns="http://www.w3.org/2000/svg" width="44.563" height="37.687" viewBox="0 0 44.563 37.687">
  <path id="Path_19165" data-name="Path 19165" d="M282.956,133.3l-8.972,0a4.491,4.491,0,0,1-4.484-4.488l.012-28.711A4.491,4.491,0,0,1,274,95.615l8.972,0a4.491,4.491,0,0,1,4.484,4.488l-.012,28.711A4.491,4.491,0,0,1,282.956,133.3ZM274,97.409a2.7,2.7,0,0,0-2.693,2.69l-.012,28.711a2.7,2.7,0,0,0,2.69,2.693l8.972,0a2.7,2.7,0,0,0,2.693-2.69l.012-28.711a2.7,2.7,0,0,0-2.69-2.693Z" transform="translate(-255.442 -95.615)" fill="#6f6f6e"/>
  <path id="Path_19166" data-name="Path 19166" d="M282.15,180.828l-7.178,0a.9.9,0,0,1-.786-.465,58.937,58.937,0,0,0-4.411-7.069.9.9,0,0,1,.437-1.4,26.864,26.864,0,0,1,16.7.007.9.9,0,0,1,.436,1.4,59.065,59.065,0,0,0-4.417,7.066.9.9,0,0,1-.786.464Zm-6.648-1.8,6.12,0a67.423,67.423,0,0,1,3.546-5.782,25.022,25.022,0,0,0-13.207-.006,67.127,67.127,0,0,1,3.541,5.786Z" transform="translate(-255.524 -162.881)" fill="#6f6f6e"/>
  <path id="Path_19167" data-name="Path 19167" d="M278.48,324.618a27,27,0,0,1-8.352-1.335.9.9,0,0,1-.436-1.4,59.049,59.049,0,0,0,4.417-7.065.9.9,0,0,1,.786-.464l7.178,0a.9.9,0,0,1,.786.465,59.016,59.016,0,0,0,4.411,7.069.9.9,0,0,1-.437,1.4,26.988,26.988,0,0,1-8.353,1.327Zm-6.6-2.684a25.022,25.022,0,0,0,13.207.006,67.421,67.421,0,0,1-3.541-5.784l-6.12,0a67.169,67.169,0,0,1-3.546,5.781Z" transform="translate(-255.45 -291.928)" fill="#6f6f6e"/>
  <path id="Path_19168" data-name="Path 19168" d="M321.369,261.187l-7.178,0a.9.9,0,0,1-.9-.9l0-6.281a.9.9,0,0,1,.9-.9l7.178,0a.9.9,0,0,1,.9.9l0,6.281A.9.9,0,0,1,321.369,261.187Zm-6.28-1.8,5.383,0,0-4.486-5.383,0Z" transform="translate(-294.745 -236.959)" fill="#6f6f6e"/>
  <path id="Path_19169" data-name="Path 19169" d="M306.414,131.507a.9.9,0,1,1-.9-.9.9.9,0,0,1,.9.9" transform="translate(-286.961 -127.022)" fill="#6f6f6e"/>
  <path id="Path_19170" data-name="Path 19170" d="M393.914,131.547a.9.9,0,1,1-.9-.9.9.9,0,0,1,.9.9" transform="translate(-365.489 -127.057)" fill="#6f6f6e"/>
  <path id="Path_19171" data-name="Path 19171" d="M241.22,184.254l3.589-.9.435,1.74-3.589.9Z" transform="translate(-230.062 -174.361)" fill="#6f6f6e"/>
  <path id="Path_19172" data-name="Path 19172" d="M433.72,185.171l.436-1.74,3.589.9-.436,1.74Z" transform="translate(-402.823 -174.426)" fill="#6f6f6e"/>
  <path id="Path_19173" data-name="Path 19173" d="M211.515,255.334a6.837,6.837,0,0,1,0-6.188l1.6.815a5.036,5.036,0,0,0,0,4.558Z" transform="translate(-202.74 -233.403)" fill="#6f6f6e"/>
  <path id="Path_19174" data-name="Path 19174" d="M172.767,241.413a10.806,10.806,0,0,1,0-9.777l1.6.816a9,9,0,0,0,0,8.147Z" transform="translate(-167.581 -217.688)" fill="#6f6f6e"/>
  <path id="Path_19175" data-name="Path 19175" d="M134,227.485a14.765,14.765,0,0,1,.006-13.365l1.6.815a12.964,12.964,0,0,0,0,11.736Z" transform="translate(-132.406 -201.968)" fill="#6f6f6e"/>
  <path id="Path_19176" data-name="Path 19176" d="M475.8,255.454l-1.6-.816a5.034,5.034,0,0,0,0-4.558l1.6-.814a6.837,6.837,0,0,1,0,6.188Z" transform="translate(-439.152 -233.511)" fill="#6f6f6e"/>
  <path id="Path_19177" data-name="Path 19177" d="M506.6,241.553l-1.6-.816a9,9,0,0,0,0-8.147l1.6-.814a10.8,10.8,0,0,1,0,9.777Z" transform="translate(-466.794 -217.814)" fill="#6f6f6e"/>
  <path id="Path_19178" data-name="Path 19178" d="M537.389,227.651l-1.6-.816a12.964,12.964,0,0,0,0-11.736l1.6-.814a14.766,14.766,0,0,1-.006,13.365Z" transform="translate(-494.427 -202.117)" fill="#6f6f6e"/>
</svg>
