<svg id="noun-easy-4676087" xmlns="http://www.w3.org/2000/svg" width="26.953" height="36.433" viewBox="0 0 26.953 36.433">
  <path id="Path_19159" data-name="Path 19159" d="M311.234,414.724a1.054,1.054,0,0,0,.674,1.791h.032a1.054,1.054,0,1,0-.706-1.791Z" transform="translate(-301.122 -383.544)" fill="#6f6f6e"/>
  <path id="Path_19160" data-name="Path 19160" d="M232.988,138.783a2.418,2.418,0,0,0-1.5-.738,2.343,2.343,0,0,0,.258-1.017,2.317,2.317,0,0,0-.627-1.649,2.266,2.266,0,0,0-1.48-.717,2.492,2.492,0,0,0-.5-2.634,2.465,2.465,0,0,0-1.412-.748L232,127.235a2.292,2.292,0,0,0,.09-3.214,2.266,2.266,0,0,0-1.581-.717,2.291,2.291,0,0,0-1.633.622l-10.216,9.668a8.919,8.919,0,0,0-2.15-4.215,5.505,5.505,0,0,0-3.793-2.039,1.739,1.739,0,0,0-1.654.785,2.892,2.892,0,0,0,.032,2.9,12.044,12.044,0,0,1,1.491,7.15,11.311,11.311,0,0,1-.564,2.524,1.913,1.913,0,0,0-.622-.137,1.728,1.728,0,0,0-1.233.469l-2.945,2.771a1.722,1.722,0,0,0-.079,2.434l8.9,9.484a1.733,1.733,0,0,0,2.439.079l2.945-2.771a1.691,1.691,0,0,0,.527-1.2,1.727,1.727,0,0,0-.2-.859l1.391-.748a23.741,23.741,0,0,0,5.042-3.625l4.668-4.389a2.423,2.423,0,0,0,.111-3.424ZM220.76,152.318l-2.95,2.766h0a.738.738,0,0,1-1.054-.032l-8.9-9.484a.743.743,0,0,1,.032-1.054l2.956-2.782a.755.755,0,0,1,.527-.2.733.733,0,0,1,.527.237l7.366,7.866,1.533,1.633h0a.732.732,0,0,1-.032,1.049Zm11.9-11.828a1.433,1.433,0,0,1-.453,1.006l-4.673,4.389a22.786,22.786,0,0,1-4.831,3.477l-1.581.838-3.835-4.094-4.463-4.742a11.686,11.686,0,0,0,.727-3.019,13.173,13.173,0,0,0-1.581-7.766,1.933,1.933,0,0,1-.074-1.892.749.749,0,0,1,.748-.343,4.478,4.478,0,0,1,3.161,1.713,7.277,7.277,0,0,1,2.013,4.573h0a.485.485,0,0,0,.284.464.49.49,0,0,0,.527-.09l10.895-10.353a1.3,1.3,0,0,1,.933-.353,1.287,1.287,0,0,1,.906.406,1.3,1.3,0,0,1-.047,1.833l-6.849,6.523a.49.49,0,0,0,.669.712l1.2-1.122a1.493,1.493,0,0,1,2.044,2.176l-1.581,1.491a.49.49,0,1,0,.669.716l1.107-1.054a1.321,1.321,0,1,1,1.812,1.923l-.8.753-.827.774a.5.5,0,0,0,0,.7.49.49,0,0,0,.69,0l.832-.78a1.444,1.444,0,0,1,2.429,1.1Z" transform="translate(-206.675 -119.827)" fill="#6f6f6e"/>
  <path id="Path_19161" data-name="Path 19161" d="M290.449,113.1a.49.49,0,0,0,.348.142.526.526,0,0,0,.348-.142.49.49,0,0,0,0-.69l-1.713-1.723a.49.49,0,0,0-.69.7Z" transform="translate(-280.896 -108.278)" fill="#6f6f6e"/>
  <path id="Path_19162" data-name="Path 19162" d="M344.443,89.741a.49.49,0,0,0,.49-.49V86.838a.49.49,0,0,0-.98,0v2.413A.49.49,0,0,0,344.443,89.741Z" transform="translate(-331.038 -86.348)" fill="#6f6f6e"/>
  <path id="Path_19163" data-name="Path 19163" d="M383.09,112.574a.489.489,0,0,0,.348-.142l1.707-1.707a.49.49,0,1,0-.69-.68l-1.707,1.7a.487.487,0,0,0,.342.832Z" transform="translate(-366.049 -107.632)" fill="#6f6f6e"/>
</svg>
