<svg xmlns="http://www.w3.org/2000/svg" width="28.889" height="34.582" viewBox="0 0 28.889 34.582">
  <path id="noun-safety-4716650" d="M165.655,42.035a2.828,2.828,0,0,0-.709.089L153.328,45.15a2.836,2.836,0,0,0-2.118,2.742V62.273c0,4.841,3.835,8.19,6.992,10.453a39.072,39.072,0,0,0,6.308,3.65,2.824,2.824,0,0,0,2.283,0,38.983,38.983,0,0,0,6.314-3.65c3.156-2.263,6.992-5.612,6.992-10.453V47.892a2.836,2.836,0,0,0-2.118-2.742l-11.617-3.026a2.815,2.815,0,0,0-.709-.089Zm0,2.033a.78.78,0,0,1,.2.024l11.617,3.028a.79.79,0,0,1,.594.773V62.273c0,3.74-3.135,6.635-6.143,8.792a37.467,37.467,0,0,1-5.947,3.447l-.008.008a.773.773,0,0,1-.632,0l-.006-.008a37.576,37.576,0,0,1-5.941-3.447c-3.008-2.157-6.143-5.052-6.143-8.792V47.892a.791.791,0,0,1,.594-.773l11.617-3.028a.78.78,0,0,1,.2-.024Zm0,1.635a1.018,1.018,0,0,0-.258.034l-9.807,2.569a1.017,1.017,0,0,0-.767.983V62.273a6.68,6.68,0,0,0,1.727,4.023,18.78,18.78,0,0,0,3.755,3.485,28.5,28.5,0,0,0,4.919,2.861,1.019,1.019,0,0,0,.856,0,28.5,28.5,0,0,0,4.925-2.861A18.791,18.791,0,0,0,174.76,66.3a6.679,6.679,0,0,0,1.727-4.023V49.289a1.017,1.017,0,0,0-.765-.983l-9.807-2.569a1.019,1.019,0,0,0-.26-.034Zm0,2.076,8.794,2.291v12.2a5.131,5.131,0,0,1-1.284,2.762,17.035,17.035,0,0,1-3.35,3.1,22.5,22.5,0,0,1-4.168,2.424,22.527,22.527,0,0,1-4.161-2.424,17.013,17.013,0,0,1-3.348-3.1,5.137,5.137,0,0,1-1.285-2.762V50.07Zm3.994,6.676a1.019,1.019,0,0,0-.7.346l-4.182,4.8-2.094-2.253a1.016,1.016,0,0,0-1.488,1.383l2.861,3.078a1.017,1.017,0,0,0,1.51-.022l4.925-5.647a1.017,1.017,0,0,0-.835-1.683Z" transform="translate(-151.21 -42.035)" fill="#6f6f6e"/>
</svg>
