<svg id="noun-speaker-4756182" xmlns="http://www.w3.org/2000/svg" width="36.881" height="30.661" viewBox="0 0 36.881 30.661">
  <path id="Path_19164" data-name="Path 19164" d="M102.874,64.363h12.317a4.477,4.477,0,0,1,4.467,4.467V90.557a4.477,4.477,0,0,1-4.467,4.467H102.874a4.477,4.477,0,0,1-4.467-4.467V68.83a4.477,4.477,0,0,1,4.467-4.467ZM94.661,75.7a.947.947,0,0,1,1.894,0v7.989a.947.947,0,1,1-1.894,0Zm-4.069-2.4a.947.947,0,1,1,1.894,0V86.086a.947.947,0,0,1-1.894,0Zm30.918,2.4a.947.947,0,1,1,1.894,0v7.989a.947.947,0,1,1-1.894,0Zm4.069-2.4a.947.947,0,1,1,1.894,0V86.086a.947.947,0,1,1-1.894,0ZM109.031,68.59A4.138,4.138,0,1,1,106.1,69.8,4.133,4.133,0,0,1,109.031,68.59Zm1.588,2.552a2.247,2.247,0,1,0,.658,1.589A2.236,2.236,0,0,0,110.62,71.142Zm-1.588,7.623a6.015,6.015,0,1,1-4.253,1.762A6,6,0,0,1,109.031,78.765Zm2.914,3.1a4.122,4.122,0,1,0,1.207,2.914A4.109,4.109,0,0,0,111.945,81.865Zm3.245-15.61H102.873a2.581,2.581,0,0,0-2.571,2.571V90.554a2.581,2.581,0,0,0,2.571,2.571H115.19a2.581,2.581,0,0,0,2.571-2.571V68.827a2.581,2.581,0,0,0-2.571-2.571Z" transform="translate(-90.592 -64.363)" fill="#6f6f6e"/>
</svg>
