<svg xmlns="http://www.w3.org/2000/svg" width="17.573" height="19.303" viewBox="0 0 17.573 19.303">
  <g id="Icon_feather-share-2" data-name="Icon feather-share-2" transform="translate(1 1)">
    <path id="Path_19167" data-name="Path 19167" d="M27.691,5.6A2.6,2.6,0,1,1,25.1,3,2.6,2.6,0,0,1,27.691,5.6Z" transform="translate(-12.118 -3)" fill="none" stroke="#b0b8bc" stroke-linecap="round" stroke-linejoin="round" stroke-width="2"/>
    <path id="Path_19168" data-name="Path 19168" d="M9.691,16.1a2.6,2.6,0,1,1-2.6-2.6A2.6,2.6,0,0,1,9.691,16.1Z" transform="translate(-4.5 -7.444)" fill="none" stroke="#b0b8bc" stroke-linecap="round" stroke-linejoin="round" stroke-width="2"/>
    <path id="Path_19169" data-name="Path 19169" d="M27.691,26.6A2.6,2.6,0,1,1,25.1,24,2.6,2.6,0,0,1,27.691,26.6Z" transform="translate(-12.118 -11.888)" fill="none" stroke="#b0b8bc" stroke-linecap="round" stroke-linejoin="round" stroke-width="2"/>
    <path id="Path_19170" data-name="Path 19170" d="M12.885,20.265l5.909,3.443" transform="translate(-8.049 -10.307)" fill="none" stroke="#b0b8bc" stroke-linecap="round" stroke-linejoin="round" stroke-width="2"/>
    <path id="Path_19171" data-name="Path 19171" d="M18.785,9.765l-5.9,3.443" transform="translate(-8.049 -5.863)" fill="none" stroke="#b0b8bc" stroke-linecap="round" stroke-linejoin="round" stroke-width="2"/>
  </g>
</svg>
