<svg xmlns="http://www.w3.org/2000/svg" width="72" height="72" viewBox="0 0 72 72">
  <g id="Group_3579" data-name="Group 3579" transform="translate(-128 -935)">
    <circle id="Ellipse_27" data-name="Ellipse 27" cx="36" cy="36" r="36" transform="translate(128 935)" fill="#1b395f" opacity="0.22"/>
    <g id="noun-v-twin-engine-780343" transform="translate(145 953)">
      <path id="Path_19120" data-name="Path 19120" d="M260.352,306.29a6.654,6.654,0,1,0,6.663,6.654A6.663,6.663,0,0,0,260.352,306.29Zm0,1.206a5.444,5.444,0,1,1-5.44,5.449A5.442,5.442,0,0,1,260.352,307.5Z" transform="translate(-240.995 -286.924)" fill="#1b395f"/>
      <path id="Path_19121" data-name="Path 19121" d="M235.634,398.129v5.493l-2.671,2.671H222.576l-2.671-2.671v-5.19H218.69v5.69l3.385,3.385h11.389l3.376-3.385v-5.994Z" transform="translate(-208.407 -372.413)" fill="#1b395f" fill-rule="evenodd"/>
      <path id="Path_19122" data-name="Path 19122" d="M325.53,376.3a1.813,1.813,0,1,0,1.822,1.813A1.821,1.821,0,0,0,325.53,376.3Zm0,1.206a.607.607,0,0,1,0,1.215.607.607,0,0,1,0-1.215Z" transform="translate(-306.172 -352.093)" fill="#1b395f"/>
      <path id="Path_19123" data-name="Path 19123" d="M301.117,35a3.631,3.631,0,1,0,3.635,3.626A3.633,3.633,0,0,0,301.117,35Zm0,1.206a2.421,2.421,0,1,1-2.412,2.421A2.412,2.412,0,0,1,301.117,36.206Z" transform="translate(-281.76 -34.392)" fill="#1b395f"/>
      <path id="Path_19124" data-name="Path 19124" d="M112.435,68.848l-1.054.6L117.857,80.8l-8.8,5.431-6.351-11.541-1.063.581,6.583,11.96V91.92a.6.6,0,0,0,.607.607h4.234V91.312h-3.626V87.417l9.549-5.9h0a.605.605,0,0,0,.214-.822Z" transform="translate(-99.455 -65.899)" fill="#1b395f" fill-rule="evenodd"/>
      <path id="Path_19125" data-name="Path 19125" d="M194.07,204.62l-9.87,6.208.643,1.027,9.87-6.217Z" transform="translate(-176.302 -192.284)" fill="#1b395f" fill-rule="evenodd"/>
      <path id="Path_19126" data-name="Path 19126" d="M149.612,126.07l-1.063.59,5.645,10.165,1.054-.59Z" transform="translate(-143.116 -119.165)" fill="#1b395f" fill-rule="evenodd"/>
      <path id="Path_19127" data-name="Path 19127" d="M198.572,97.523l-1.063.59,5.645,10.156,1.054-.581Z" transform="translate(-188.691 -92.592)" fill="#1b395f" fill-rule="evenodd"/>
      <path id="Path_19128" data-name="Path 19128" d="M268.086,86.156l-2.251,1.411.643,1.027,2.251-1.411Z" transform="translate(-252.293 -82.011)" fill="#1b395f" fill-rule="evenodd"/>
      <path id="Path_19129" data-name="Path 19129" d="M292.516,116.77l-2.26,1.411.643,1.027,2.26-1.411Z" transform="translate(-275.025 -110.508)" fill="#1b395f" fill-rule="evenodd"/>
      <path id="Path_19130" data-name="Path 19130" d="M81.884,26.215a.608.608,0,0,0-.321.089L70.272,33.11a.605.605,0,0,0-.205.84l1.411,2.269a.605.605,0,0,0,.831.2L83.6,29.609h0a.6.6,0,0,0,.206-.84L82.393,26.5h0a.605.605,0,0,0-.509-.286Zm-.206,1.429.768,1.242L72.192,35.067l-.768-1.233Z" transform="translate(-69.976 -26.214)" fill="#1b395f" fill-rule="evenodd"/>
      <path id="Path_19131" data-name="Path 19131" d="M350.062,68.848,343.291,80.7h0a.6.6,0,0,0,.214.822l9.549,5.9v3.894h-3.626v1.215h4.234a.605.605,0,0,0,.607-.607V87.231l6.574-11.96-1.054-.581L353.438,86.23l-8.8-5.431,6.476-11.353-1.054-.6Z" transform="translate(-324.318 -65.899)" fill="#1b395f" fill-rule="evenodd"/>
      <path id="Path_19132" data-name="Path 19132" d="M364.282,204.62l-.652,1.018,9.879,6.217.643-1.027Z" transform="translate(-343.326 -192.284)" fill="#1b395f" fill-rule="evenodd"/>
      <path id="Path_19133" data-name="Path 19133" d="M460.21,126.07l-5.636,10.165,1.054.59,5.645-10.165Z" transform="translate(-427.982 -119.165)" fill="#1b395f" fill-rule="evenodd"/>
      <path id="Path_19134" data-name="Path 19134" d="M411.25,97.523l-5.636,10.165,1.054.581,5.645-10.156Z" transform="translate(-382.407 -92.592)" fill="#1b395f" fill-rule="evenodd"/>
      <path id="Path_19135" data-name="Path 19135" d="M392.952,86.156l-.643,1.027,2.251,1.411.643-1.027Z" transform="translate(-370.022 -82.011)" fill="#1b395f" fill-rule="evenodd"/>
      <path id="Path_19136" data-name="Path 19136" d="M368.412,116.77l-.643,1.027,2.26,1.411.643-1.027Z" transform="translate(-347.179 -110.508)" fill="#1b395f" fill-rule="evenodd"/>
      <path id="Path_19137" data-name="Path 19137" d="M288.75,394.355a.6.6,0,1,1,.605.6A.6.6,0,0,1,288.75,394.355Z" transform="translate(-273.623 -368.337)" fill="#1b395f"/>
      <path id="Path_19138" data-name="Path 19138" d="M393.75,394.355a.6.6,0,1,1,.605.6A.6.6,0,0,1,393.75,394.355Z" transform="translate(-371.363 -368.337)" fill="#1b395f"/>
      <path id="Path_19139" data-name="Path 19139" d="M341.855,341.25a.6.6,0,1,1-.605.6A.6.6,0,0,1,341.855,341.25Z" transform="translate(-322.493 -319.467)" fill="#1b395f"/>
      <path id="Path_19140" data-name="Path 19140" d="M341.855,446.25a.6.6,0,1,1-.605.605A.6.6,0,0,1,341.855,446.25Z" transform="translate(-322.493 -417.207)" fill="#1b395f"/>
      <path id="Path_19141" data-name="Path 19141" d="M430.761,26.2a.6.6,0,0,0-.545.286L428.8,28.759h0a.605.605,0,0,0,.205.84l11.29,6.806a.6.6,0,0,0,.831-.2l1.411-2.269a.605.605,0,0,0-.205-.84l-11.29-6.806a.605.605,0,0,0-.286-.089Zm.17,1.429,10.254,6.19-.768,1.233-10.254-6.181Z" transform="translate(-403.91 -26.204)" fill="#1b395f" fill-rule="evenodd"/>
    </g>
  </g>
</svg>
