<svg id="noun-transmission-1325127" xmlns="http://www.w3.org/2000/svg" width="28.14" height="26.222" viewBox="0 0 28.14 26.222">
  <path id="Path_19142" data-name="Path 19142" d="M107.76,50.4a4.151,4.151,0,0,0-.639,8.254v9.713a4.157,4.157,0,1,0,1.279,0V64.146h8.634v4.217a4.157,4.157,0,1,0,1.279,0V64.146h9.273a.64.64,0,0,0,.639-.639V58.65a4.157,4.157,0,1,0-1.279,0v4.217h-8.634V58.65a4.157,4.157,0,1,0-1.279,0v4.217H108.4V58.65a4.151,4.151,0,0,0-.64-8.254Zm0,1.279a2.878,2.878,0,1,1-2.878,2.878A2.868,2.868,0,0,1,107.76,51.675Zm9.913,0a2.878,2.878,0,1,1-2.878,2.878A2.868,2.868,0,0,1,117.673,51.675Zm9.913,0a2.878,2.878,0,1,1-2.878,2.878A2.868,2.868,0,0,1,127.586,51.675Zm0,16.628a4.157,4.157,0,1,0,2.858,7.165.64.64,0,1,0-.879-.919,2.877,2.877,0,1,1,.9-2.088.64.64,0,1,0,1.279,0,4.167,4.167,0,0,0-4.157-4.157ZM107.76,69.583a2.878,2.878,0,1,1-2.878,2.878A2.868,2.868,0,0,1,107.76,69.583Zm9.913,0a2.878,2.878,0,1,1-2.878,2.878A2.868,2.868,0,0,1,117.673,69.583Z" transform="translate(-103.603 -50.396)" fill="#6f6f6e"/>
</svg>
