<svg xmlns="http://www.w3.org/2000/svg" width="35.189" height="27.099" viewBox="0 0 35.189 27.099">
  <g id="Group_3325" data-name="Group 3325" transform="translate(0)">
    <g id="noun-car-4258091">
      <path id="Path_19144" data-name="Path 19144" d="M178.43,191.39a4.352,4.352,0,0,1-3.456-1.934l-.175-.294a5.158,5.158,0,0,0-4.451-2.517h-7.675a5.215,5.215,0,0,0-3.864,1.74l-.82.82a9.48,9.48,0,0,1-5.854,3.1l-3.57.488a3.009,3.009,0,0,0-2.574,2.929v2.617a2.9,2.9,0,0,0,2.925,2.929h2.394a3.513,3.513,0,0,0,6.926,0h11.809a3.513,3.513,0,0,0,6.926,0h1.223a2.981,2.981,0,0,0,2.987-2.844v-4.11a2.982,2.982,0,0,0-2.749-2.925Zm-23.66,11.652a2.346,2.346,0,1,1,2.328-2.332,2.37,2.37,0,0,1-2.328,2.332Zm18.734,0a2.37,2.37,0,1,1,1.644-.691,2.347,2.347,0,0,1-1.644.691Zm6.442-4.7a1.725,1.725,0,0,1-1.754,1.758H176.97a3.551,3.551,0,0,0-2.019-2.617l-.071-.028h-.043l-.118-.047h-.028l-.133-.043h-.028l-.133-.038h-.028l-.138-.033H174.2l-.133-.024h-1.119l-.128.024h-.038l-.133.033h-.028l-.138.038h-.028l-.128.043h-.033l-.114.047h-.043l-.071.028h0a3.531,3.531,0,0,0-2.019,2.617H158.231a3.532,3.532,0,0,0-2.02-2.617l-.061-.014h-.043l-.114-.047h-.033l-.128-.043H155.8l-.128-.076h-.028l-.133-.033h-.038l-.128-.024H154.23l-.133.024h-.033l-.138.033H153.9l-.133.038h-.028l-.133.043h-.028l-.118.047h-.043l-.071.028h0a3.541,3.541,0,0,0-2.019,2.617h-2.413a1.725,1.725,0,0,1-1.768-1.735v-2.617a1.673,1.673,0,0,1,1.521-1.7l3.574-.474h0a10.349,10.349,0,0,0,6.613-3.456l.82-.948a3.881,3.881,0,0,1,2.986-1.346h7.684a4.072,4.072,0,0,1,3.4,1.9l.175.294a5.428,5.428,0,0,0,4.389,2.517,1.739,1.739,0,0,1,1.64,1.759Z" transform="translate(-145.992 -186.645)" fill="#6f6f6e"/>
    </g>
    <path id="Union_2" data-name="Union 2" d="M0,27.514V.537a.537.537,0,1,1,1.075,0V1.842H3.7a.537.537,0,0,1,0,1.074H1.075V4.782H5.568a.537.537,0,0,1,0,1.075H1.075V7.722H3.7A.537.537,0,0,1,3.7,8.8H1.075V10.6H3.7a.537.537,0,0,1,0,1.075H1.075v1.866H5.568a.537.537,0,1,1,0,1.074H1.075v1.866H3.7a.537.537,0,0,1,0,1.075H1.075v1.809H3.7a.537.537,0,0,1,0,1.074H1.075v1.866H5.568a.537.537,0,0,1,0,1.075H1.075v1.865H3.7a.537.537,0,0,1,0,1.075H1.075v1.192a.537.537,0,0,1-1.075,0Z" transform="translate(31.62 20.993) rotate(90)" fill="#6f6f6e"/>
  </g>
</svg>
